<?xml version="1.0" encoding="utf-8" standalone="no"?>
<!DOCTYPE svg PUBLIC "-//W3C//DTD SVG 1.1//EN"
  "http://www.w3.org/Graphics/SVG/1.1/DTD/svg11.dtd">
<svg xmlns:xlink="http://www.w3.org/1999/xlink" width="576pt" height="216pt" viewBox="0 0 576 216" xmlns="http://www.w3.org/2000/svg" version="1.1">
 <metadata>
  <rdf:RDF xmlns:dc="http://purl.org/dc/elements/1.1/" xmlns:cc="http://creativecommons.org/ns#" xmlns:rdf="http://www.w3.org/1999/02/22-rdf-syntax-ns#">
   <cc:Work>
    <dc:type rdf:resource="http://purl.org/dc/dcmitype/StillImage"/>
    <dc:date>2025-06-02T16:56:40.484024</dc:date>
    <dc:format>image/svg+xml</dc:format>
    <dc:creator>
     <cc:Agent>
      <dc:title>Matplotlib v3.10.0, https://matplotlib.org/</dc:title>
     </cc:Agent>
    </dc:creator>
   </cc:Work>
  </rdf:RDF>
 </metadata>
 <defs>
  <style type="text/css">*{stroke-linejoin: round; stroke-linecap: butt}</style>
 </defs>
 <g id="figure_1">
  <g id="patch_1">
   <path d="M 0 216 
L 576 216 
L 576 0 
L 0 0 
L 0 216 
z
" style="fill: none"/>
  </g>
  <g id="axes_1">
   <g id="patch_2">
    <path d="M 72 192.24 
L 518.4 192.24 
L 518.4 25.92 
L 72 25.92 
L 72 192.24 
z
" style="fill: none"/>
   </g>
   <g id="matplotlib.axis_1">
    <g id="xtick_1">
     <g id="line2d_1">
      <path d="M 72 192.24 
L 72 25.92 
" clip-path="url(#p302916bb59)" style="fill: none; stroke: #ffffff; stroke-linecap: round"/>
     </g>
     <g id="text_1">
      <!-- 1 -->
      <g style="fill: #262626" transform="translate(68.500625 210.098281) scale(0.11 -0.11)">
       <defs>
        <path id="DejaVuSans-31" d="M 794 531 
L 1825 531 
L 1825 4091 
L 703 3866 
L 703 4441 
L 1819 4666 
L 2450 4666 
L 2450 531 
L 3481 531 
L 3481 0 
L 794 0 
L 794 531 
z
" transform="scale(0.015625)"/>
       </defs>
       <use xlink:href="#DejaVuSans-31"/>
      </g>
     </g>
    </g>
    <g id="xtick_2">
     <g id="line2d_2">
      <path d="M 161.28 192.24 
L 161.28 25.92 
" clip-path="url(#p302916bb59)" style="fill: none; stroke: #ffffff; stroke-linecap: round"/>
     </g>
     <g id="text_2">
      <!-- 2 -->
      <g style="fill: #262626" transform="translate(157.780625 210.098281) scale(0.11 -0.11)">
       <defs>
        <path id="DejaVuSans-32" d="M 1228 531 
L 3431 531 
L 3431 0 
L 469 0 
L 469 531 
Q 828 903 1448 1529 
Q 2069 2156 2228 2338 
Q 2531 2678 2651 2914 
Q 2772 3150 2772 3378 
Q 2772 3750 2511 3984 
Q 2250 4219 1831 4219 
Q 1534 4219 1204 4116 
Q 875 4013 500 3803 
L 500 4441 
Q 881 4594 1212 4672 
Q 1544 4750 1819 4750 
Q 2544 4750 2975 4387 
Q 3406 4025 3406 3419 
Q 3406 3131 3298 2873 
Q 3191 2616 2906 2266 
Q 2828 2175 2409 1742 
Q 1991 1309 1228 531 
z
" transform="scale(0.015625)"/>
       </defs>
       <use xlink:href="#DejaVuSans-32"/>
      </g>
     </g>
    </g>
    <g id="xtick_3">
     <g id="line2d_3">
      <path d="M 250.56 192.24 
L 250.56 25.92 
" clip-path="url(#p302916bb59)" style="fill: none; stroke: #ffffff; stroke-linecap: round"/>
     </g>
     <g id="text_3">
      <!-- 3 -->
      <g style="fill: #262626" transform="translate(247.060625 210.098281) scale(0.11 -0.11)">
       <defs>
        <path id="DejaVuSans-33" d="M 2597 2516 
Q 3050 2419 3304 2112 
Q 3559 1806 3559 1356 
Q 3559 666 3084 287 
Q 2609 -91 1734 -91 
Q 1441 -91 1130 -33 
Q 819 25 488 141 
L 488 750 
Q 750 597 1062 519 
Q 1375 441 1716 441 
Q 2309 441 2620 675 
Q 2931 909 2931 1356 
Q 2931 1769 2642 2001 
Q 2353 2234 1838 2234 
L 1294 2234 
L 1294 2753 
L 1863 2753 
Q 2328 2753 2575 2939 
Q 2822 3125 2822 3475 
Q 2822 3834 2567 4026 
Q 2313 4219 1838 4219 
Q 1578 4219 1281 4162 
Q 984 4106 628 3988 
L 628 4550 
Q 988 4650 1302 4700 
Q 1616 4750 1894 4750 
Q 2613 4750 3031 4423 
Q 3450 4097 3450 3541 
Q 3450 3153 3228 2886 
Q 3006 2619 2597 2516 
z
" transform="scale(0.015625)"/>
       </defs>
       <use xlink:href="#DejaVuSans-33"/>
      </g>
     </g>
    </g>
    <g id="xtick_4">
     <g id="line2d_4">
      <path d="M 339.84 192.24 
L 339.84 25.92 
" clip-path="url(#p302916bb59)" style="fill: none; stroke: #ffffff; stroke-linecap: round"/>
     </g>
     <g id="text_4">
      <!-- 4 -->
      <g style="fill: #262626" transform="translate(336.340625 210.098281) scale(0.11 -0.11)">
       <defs>
        <path id="DejaVuSans-34" d="M 2419 4116 
L 825 1625 
L 2419 1625 
L 2419 4116 
z
M 2253 4666 
L 3047 4666 
L 3047 1625 
L 3713 1625 
L 3713 1100 
L 3047 1100 
L 3047 0 
L 2419 0 
L 2419 1100 
L 313 1100 
L 313 1709 
L 2253 4666 
z
" transform="scale(0.015625)"/>
       </defs>
       <use xlink:href="#DejaVuSans-34"/>
      </g>
     </g>
    </g>
    <g id="xtick_5">
     <g id="line2d_5">
      <path d="M 429.12 192.24 
L 429.12 25.92 
" clip-path="url(#p302916bb59)" style="fill: none; stroke: #ffffff; stroke-linecap: round"/>
     </g>
     <g id="text_5">
      <!-- 5 -->
      <g style="fill: #262626" transform="translate(425.620625 210.098281) scale(0.11 -0.11)">
       <defs>
        <path id="DejaVuSans-35" d="M 691 4666 
L 3169 4666 
L 3169 4134 
L 1269 4134 
L 1269 2991 
Q 1406 3038 1543 3061 
Q 1681 3084 1819 3084 
Q 2600 3084 3056 2656 
Q 3513 2228 3513 1497 
Q 3513 744 3044 326 
Q 2575 -91 1722 -91 
Q 1428 -91 1123 -41 
Q 819 9 494 109 
L 494 744 
Q 775 591 1075 516 
Q 1375 441 1709 441 
Q 2250 441 2565 725 
Q 2881 1009 2881 1497 
Q 2881 1984 2565 2268 
Q 2250 2553 1709 2553 
Q 1456 2553 1204 2497 
Q 953 2441 691 2322 
L 691 4666 
z
" transform="scale(0.015625)"/>
       </defs>
       <use xlink:href="#DejaVuSans-35"/>
      </g>
     </g>
    </g>
    <g id="xtick_6">
     <g id="line2d_6">
      <path d="M 518.4 192.24 
L 518.4 25.92 
" clip-path="url(#p302916bb59)" style="fill: none; stroke: #ffffff; stroke-linecap: round"/>
     </g>
     <g id="text_6">
      <!-- 6 -->
      <g style="fill: #262626" transform="translate(514.900625 210.098281) scale(0.11 -0.11)">
       <defs>
        <path id="DejaVuSans-36" d="M 2113 2584 
Q 1688 2584 1439 2293 
Q 1191 2003 1191 1497 
Q 1191 994 1439 701 
Q 1688 409 2113 409 
Q 2538 409 2786 701 
Q 3034 994 3034 1497 
Q 3034 2003 2786 2293 
Q 2538 2584 2113 2584 
z
M 3366 4563 
L 3366 3988 
Q 3128 4100 2886 4159 
Q 2644 4219 2406 4219 
Q 1781 4219 1451 3797 
Q 1122 3375 1075 2522 
Q 1259 2794 1537 2939 
Q 1816 3084 2150 3084 
Q 2853 3084 3261 2657 
Q 3669 2231 3669 1497 
Q 3669 778 3244 343 
Q 2819 -91 2113 -91 
Q 1303 -91 875 529 
Q 447 1150 447 2328 
Q 447 3434 972 4092 
Q 1497 4750 2381 4750 
Q 2619 4750 2861 4703 
Q 3103 4656 3366 4563 
z
" transform="scale(0.015625)"/>
       </defs>
       <use xlink:href="#DejaVuSans-36"/>
      </g>
     </g>
    </g>
    <g id="text_7">
     <!-- Bond Length (Angstrom) -->
     <g style="fill: #262626" transform="translate(197.02375 228.543438) scale(0.16 -0.16)">
      <defs>
       <path id="DejaVuSans-42" d="M 1259 2228 
L 1259 519 
L 2272 519 
Q 2781 519 3026 730 
Q 3272 941 3272 1375 
Q 3272 1813 3026 2020 
Q 2781 2228 2272 2228 
L 1259 2228 
z
M 1259 4147 
L 1259 2741 
L 2194 2741 
Q 2656 2741 2882 2914 
Q 3109 3088 3109 3444 
Q 3109 3797 2882 3972 
Q 2656 4147 2194 4147 
L 1259 4147 
z
M 628 4666 
L 2241 4666 
Q 2963 4666 3353 4366 
Q 3744 4066 3744 3513 
Q 3744 3084 3544 2831 
Q 3344 2578 2956 2516 
Q 3422 2416 3680 2098 
Q 3938 1781 3938 1306 
Q 3938 681 3513 340 
Q 3088 0 2303 0 
L 628 0 
L 628 4666 
z
" transform="scale(0.015625)"/>
       <path id="DejaVuSans-6f" d="M 1959 3097 
Q 1497 3097 1228 2736 
Q 959 2375 959 1747 
Q 959 1119 1226 758 
Q 1494 397 1959 397 
Q 2419 397 2687 759 
Q 2956 1122 2956 1747 
Q 2956 2369 2687 2733 
Q 2419 3097 1959 3097 
z
M 1959 3584 
Q 2709 3584 3137 3096 
Q 3566 2609 3566 1747 
Q 3566 888 3137 398 
Q 2709 -91 1959 -91 
Q 1206 -91 779 398 
Q 353 888 353 1747 
Q 353 2609 779 3096 
Q 1206 3584 1959 3584 
z
" transform="scale(0.015625)"/>
       <path id="DejaVuSans-6e" d="M 3513 2113 
L 3513 0 
L 2938 0 
L 2938 2094 
Q 2938 2591 2744 2837 
Q 2550 3084 2163 3084 
Q 1697 3084 1428 2787 
Q 1159 2491 1159 1978 
L 1159 0 
L 581 0 
L 581 3500 
L 1159 3500 
L 1159 2956 
Q 1366 3272 1645 3428 
Q 1925 3584 2291 3584 
Q 2894 3584 3203 3211 
Q 3513 2838 3513 2113 
z
" transform="scale(0.015625)"/>
       <path id="DejaVuSans-64" d="M 2906 2969 
L 2906 4863 
L 3481 4863 
L 3481 0 
L 2906 0 
L 2906 525 
Q 2725 213 2448 61 
Q 2172 -91 1784 -91 
Q 1150 -91 751 415 
Q 353 922 353 1747 
Q 353 2572 751 3078 
Q 1150 3584 1784 3584 
Q 2172 3584 2448 3432 
Q 2725 3281 2906 2969 
z
M 947 1747 
Q 947 1113 1208 752 
Q 1469 391 1925 391 
Q 2381 391 2643 752 
Q 2906 1113 2906 1747 
Q 2906 2381 2643 2742 
Q 2381 3103 1925 3103 
Q 1469 3103 1208 2742 
Q 947 2381 947 1747 
z
" transform="scale(0.015625)"/>
       <path id="DejaVuSans-20" transform="scale(0.015625)"/>
       <path id="DejaVuSans-4c" d="M 628 4666 
L 1259 4666 
L 1259 531 
L 3531 531 
L 3531 0 
L 628 0 
L 628 4666 
z
" transform="scale(0.015625)"/>
       <path id="DejaVuSans-65" d="M 3597 1894 
L 3597 1613 
L 953 1613 
Q 991 1019 1311 708 
Q 1631 397 2203 397 
Q 2534 397 2845 478 
Q 3156 559 3463 722 
L 3463 178 
Q 3153 47 2828 -22 
Q 2503 -91 2169 -91 
Q 1331 -91 842 396 
Q 353 884 353 1716 
Q 353 2575 817 3079 
Q 1281 3584 2069 3584 
Q 2775 3584 3186 3129 
Q 3597 2675 3597 1894 
z
M 3022 2063 
Q 3016 2534 2758 2815 
Q 2500 3097 2075 3097 
Q 1594 3097 1305 2825 
Q 1016 2553 972 2059 
L 3022 2063 
z
" transform="scale(0.015625)"/>
       <path id="DejaVuSans-67" d="M 2906 1791 
Q 2906 2416 2648 2759 
Q 2391 3103 1925 3103 
Q 1463 3103 1205 2759 
Q 947 2416 947 1791 
Q 947 1169 1205 825 
Q 1463 481 1925 481 
Q 2391 481 2648 825 
Q 2906 1169 2906 1791 
z
M 3481 434 
Q 3481 -459 3084 -895 
Q 2688 -1331 1869 -1331 
Q 1566 -1331 1297 -1286 
Q 1028 -1241 775 -1147 
L 775 -588 
Q 1028 -725 1275 -790 
Q 1522 -856 1778 -856 
Q 2344 -856 2625 -561 
Q 2906 -266 2906 331 
L 2906 616 
Q 2728 306 2450 153 
Q 2172 0 1784 0 
Q 1141 0 747 490 
Q 353 981 353 1791 
Q 353 2603 747 3093 
Q 1141 3584 1784 3584 
Q 2172 3584 2450 3431 
Q 2728 3278 2906 2969 
L 2906 3500 
L 3481 3500 
L 3481 434 
z
" transform="scale(0.015625)"/>
       <path id="DejaVuSans-74" d="M 1172 4494 
L 1172 3500 
L 2356 3500 
L 2356 3053 
L 1172 3053 
L 1172 1153 
Q 1172 725 1289 603 
Q 1406 481 1766 481 
L 2356 481 
L 2356 0 
L 1766 0 
Q 1100 0 847 248 
Q 594 497 594 1153 
L 594 3053 
L 172 3053 
L 172 3500 
L 594 3500 
L 594 4494 
L 1172 4494 
z
" transform="scale(0.015625)"/>
       <path id="DejaVuSans-68" d="M 3513 2113 
L 3513 0 
L 2938 0 
L 2938 2094 
Q 2938 2591 2744 2837 
Q 2550 3084 2163 3084 
Q 1697 3084 1428 2787 
Q 1159 2491 1159 1978 
L 1159 0 
L 581 0 
L 581 4863 
L 1159 4863 
L 1159 2956 
Q 1366 3272 1645 3428 
Q 1925 3584 2291 3584 
Q 2894 3584 3203 3211 
Q 3513 2838 3513 2113 
z
" transform="scale(0.015625)"/>
       <path id="DejaVuSans-28" d="M 1984 4856 
Q 1566 4138 1362 3434 
Q 1159 2731 1159 2009 
Q 1159 1288 1364 580 
Q 1569 -128 1984 -844 
L 1484 -844 
Q 1016 -109 783 600 
Q 550 1309 550 2009 
Q 550 2706 781 3412 
Q 1013 4119 1484 4856 
L 1984 4856 
z
" transform="scale(0.015625)"/>
       <path id="DejaVuSans-41" d="M 2188 4044 
L 1331 1722 
L 3047 1722 
L 2188 4044 
z
M 1831 4666 
L 2547 4666 
L 4325 0 
L 3669 0 
L 3244 1197 
L 1141 1197 
L 716 0 
L 50 0 
L 1831 4666 
z
" transform="scale(0.015625)"/>
       <path id="DejaVuSans-73" d="M 2834 3397 
L 2834 2853 
Q 2591 2978 2328 3040 
Q 2066 3103 1784 3103 
Q 1356 3103 1142 2972 
Q 928 2841 928 2578 
Q 928 2378 1081 2264 
Q 1234 2150 1697 2047 
L 1894 2003 
Q 2506 1872 2764 1633 
Q 3022 1394 3022 966 
Q 3022 478 2636 193 
Q 2250 -91 1575 -91 
Q 1294 -91 989 -36 
Q 684 19 347 128 
L 347 722 
Q 666 556 975 473 
Q 1284 391 1588 391 
Q 1994 391 2212 530 
Q 2431 669 2431 922 
Q 2431 1156 2273 1281 
Q 2116 1406 1581 1522 
L 1381 1569 
Q 847 1681 609 1914 
Q 372 2147 372 2553 
Q 372 3047 722 3315 
Q 1072 3584 1716 3584 
Q 2034 3584 2315 3537 
Q 2597 3491 2834 3397 
z
" transform="scale(0.015625)"/>
       <path id="DejaVuSans-72" d="M 2631 2963 
Q 2534 3019 2420 3045 
Q 2306 3072 2169 3072 
Q 1681 3072 1420 2755 
Q 1159 2438 1159 1844 
L 1159 0 
L 581 0 
L 581 3500 
L 1159 3500 
L 1159 2956 
Q 1341 3275 1631 3429 
Q 1922 3584 2338 3584 
Q 2397 3584 2469 3576 
Q 2541 3569 2628 3553 
L 2631 2963 
z
" transform="scale(0.015625)"/>
       <path id="DejaVuSans-6d" d="M 3328 2828 
Q 3544 3216 3844 3400 
Q 4144 3584 4550 3584 
Q 5097 3584 5394 3201 
Q 5691 2819 5691 2113 
L 5691 0 
L 5113 0 
L 5113 2094 
Q 5113 2597 4934 2840 
Q 4756 3084 4391 3084 
Q 3944 3084 3684 2787 
Q 3425 2491 3425 1978 
L 3425 0 
L 2847 0 
L 2847 2094 
Q 2847 2600 2669 2842 
Q 2491 3084 2119 3084 
Q 1678 3084 1418 2786 
Q 1159 2488 1159 1978 
L 1159 0 
L 581 0 
L 581 3500 
L 1159 3500 
L 1159 2956 
Q 1356 3278 1631 3431 
Q 1906 3584 2284 3584 
Q 2666 3584 2933 3390 
Q 3200 3197 3328 2828 
z
" transform="scale(0.015625)"/>
       <path id="DejaVuSans-29" d="M 513 4856 
L 1013 4856 
Q 1481 4119 1714 3412 
Q 1947 2706 1947 2009 
Q 1947 1309 1714 600 
Q 1481 -109 1013 -844 
L 513 -844 
Q 928 -128 1133 580 
Q 1338 1288 1338 2009 
Q 1338 2731 1133 3434 
Q 928 4138 513 4856 
z
" transform="scale(0.015625)"/>
      </defs>
      <use xlink:href="#DejaVuSans-42"/>
      <use xlink:href="#DejaVuSans-6f" transform="translate(68.603516 0)"/>
      <use xlink:href="#DejaVuSans-6e" transform="translate(129.785156 0)"/>
      <use xlink:href="#DejaVuSans-64" transform="translate(193.164062 0)"/>
      <use xlink:href="#DejaVuSans-20" transform="translate(256.640625 0)"/>
      <use xlink:href="#DejaVuSans-4c" transform="translate(288.427734 0)"/>
      <use xlink:href="#DejaVuSans-65" transform="translate(342.390625 0)"/>
      <use xlink:href="#DejaVuSans-6e" transform="translate(403.914062 0)"/>
      <use xlink:href="#DejaVuSans-67" transform="translate(467.292969 0)"/>
      <use xlink:href="#DejaVuSans-74" transform="translate(530.769531 0)"/>
      <use xlink:href="#DejaVuSans-68" transform="translate(569.978516 0)"/>
      <use xlink:href="#DejaVuSans-20" transform="translate(633.357422 0)"/>
      <use xlink:href="#DejaVuSans-28" transform="translate(665.144531 0)"/>
      <use xlink:href="#DejaVuSans-41" transform="translate(704.158203 0)"/>
      <use xlink:href="#DejaVuSans-6e" transform="translate(772.566406 0)"/>
      <use xlink:href="#DejaVuSans-67" transform="translate(835.945312 0)"/>
      <use xlink:href="#DejaVuSans-73" transform="translate(899.421875 0)"/>
      <use xlink:href="#DejaVuSans-74" transform="translate(951.521484 0)"/>
      <use xlink:href="#DejaVuSans-72" transform="translate(990.730469 0)"/>
      <use xlink:href="#DejaVuSans-6f" transform="translate(1029.59375 0)"/>
      <use xlink:href="#DejaVuSans-6d" transform="translate(1090.775391 0)"/>
      <use xlink:href="#DejaVuSans-29" transform="translate(1188.1875 0)"/>
     </g>
    </g>
   </g>
   <g id="matplotlib.axis_2">
    <g id="ytick_1">
     <g id="line2d_7">
      <path d="M 72 184.68 
L 518.4 184.68 
" clip-path="url(#p302916bb59)" style="fill: none; stroke: #ffffff; stroke-linecap: round"/>
     </g>
     <g id="text_8">
      <!-- 0.00 -->
      <g style="fill: #262626" transform="translate(38.007812 188.859141) scale(0.11 -0.11)">
       <defs>
        <path id="DejaVuSans-30" d="M 2034 4250 
Q 1547 4250 1301 3770 
Q 1056 3291 1056 2328 
Q 1056 1369 1301 889 
Q 1547 409 2034 409 
Q 2525 409 2770 889 
Q 3016 1369 3016 2328 
Q 3016 3291 2770 3770 
Q 2525 4250 2034 4250 
z
M 2034 4750 
Q 2819 4750 3233 4129 
Q 3647 3509 3647 2328 
Q 3647 1150 3233 529 
Q 2819 -91 2034 -91 
Q 1250 -91 836 529 
Q 422 1150 422 2328 
Q 422 3509 836 4129 
Q 1250 4750 2034 4750 
z
" transform="scale(0.015625)"/>
        <path id="DejaVuSans-2e" d="M 684 794 
L 1344 794 
L 1344 0 
L 684 0 
L 684 794 
z
" transform="scale(0.015625)"/>
       </defs>
       <use xlink:href="#DejaVuSans-30"/>
       <use xlink:href="#DejaVuSans-2e" transform="translate(63.623047 0)"/>
       <use xlink:href="#DejaVuSans-30" transform="translate(95.410156 0)"/>
       <use xlink:href="#DejaVuSans-30" transform="translate(159.033203 0)"/>
      </g>
     </g>
    </g>
    <g id="ytick_2">
     <g id="line2d_8">
      <path d="M 72 152.294138 
L 518.4 152.294138 
" clip-path="url(#p302916bb59)" style="fill: none; stroke: #ffffff; stroke-linecap: round"/>
     </g>
     <g id="text_9">
      <!-- 0.01 -->
      <g style="fill: #262626" transform="translate(38.007812 156.473279) scale(0.11 -0.11)">
       <use xlink:href="#DejaVuSans-30"/>
       <use xlink:href="#DejaVuSans-2e" transform="translate(63.623047 0)"/>
       <use xlink:href="#DejaVuSans-30" transform="translate(95.410156 0)"/>
       <use xlink:href="#DejaVuSans-31" transform="translate(159.033203 0)"/>
      </g>
     </g>
    </g>
    <g id="ytick_3">
     <g id="line2d_9">
      <path d="M 72 119.908277 
L 518.4 119.908277 
" clip-path="url(#p302916bb59)" style="fill: none; stroke: #ffffff; stroke-linecap: round"/>
     </g>
     <g id="text_10">
      <!-- 0.02 -->
      <g style="fill: #262626" transform="translate(38.007812 124.087417) scale(0.11 -0.11)">
       <use xlink:href="#DejaVuSans-30"/>
       <use xlink:href="#DejaVuSans-2e" transform="translate(63.623047 0)"/>
       <use xlink:href="#DejaVuSans-30" transform="translate(95.410156 0)"/>
       <use xlink:href="#DejaVuSans-32" transform="translate(159.033203 0)"/>
      </g>
     </g>
    </g>
    <g id="ytick_4">
     <g id="line2d_10">
      <path d="M 72 87.522415 
L 518.4 87.522415 
" clip-path="url(#p302916bb59)" style="fill: none; stroke: #ffffff; stroke-linecap: round"/>
     </g>
     <g id="text_11">
      <!-- 0.03 -->
      <g style="fill: #262626" transform="translate(38.007812 91.701556) scale(0.11 -0.11)">
       <use xlink:href="#DejaVuSans-30"/>
       <use xlink:href="#DejaVuSans-2e" transform="translate(63.623047 0)"/>
       <use xlink:href="#DejaVuSans-30" transform="translate(95.410156 0)"/>
       <use xlink:href="#DejaVuSans-33" transform="translate(159.033203 0)"/>
      </g>
     </g>
    </g>
    <g id="ytick_5">
     <g id="line2d_11">
      <path d="M 72 55.136554 
L 518.4 55.136554 
" clip-path="url(#p302916bb59)" style="fill: none; stroke: #ffffff; stroke-linecap: round"/>
     </g>
     <g id="text_12">
      <!-- 0.04 -->
      <g style="fill: #262626" transform="translate(38.007812 59.315694) scale(0.11 -0.11)">
       <use xlink:href="#DejaVuSans-30"/>
       <use xlink:href="#DejaVuSans-2e" transform="translate(63.623047 0)"/>
       <use xlink:href="#DejaVuSans-30" transform="translate(95.410156 0)"/>
       <use xlink:href="#DejaVuSans-34" transform="translate(159.033203 0)"/>
      </g>
     </g>
    </g>
    <g id="text_13">
     <!-- Error (eV) -->
     <g style="fill: #262626" transform="translate(30.680312 147.75625) rotate(-90) scale(0.16 -0.16)">
      <defs>
       <path id="DejaVuSans-45" d="M 628 4666 
L 3578 4666 
L 3578 4134 
L 1259 4134 
L 1259 2753 
L 3481 2753 
L 3481 2222 
L 1259 2222 
L 1259 531 
L 3634 531 
L 3634 0 
L 628 0 
L 628 4666 
z
" transform="scale(0.015625)"/>
       <path id="DejaVuSans-56" d="M 1831 0 
L 50 4666 
L 709 4666 
L 2188 738 
L 3669 4666 
L 4325 4666 
L 2547 0 
L 1831 0 
z
" transform="scale(0.015625)"/>
      </defs>
      <use xlink:href="#DejaVuSans-45"/>
      <use xlink:href="#DejaVuSans-72" transform="translate(63.183594 0)"/>
      <use xlink:href="#DejaVuSans-72" transform="translate(102.546875 0)"/>
      <use xlink:href="#DejaVuSans-6f" transform="translate(141.410156 0)"/>
      <use xlink:href="#DejaVuSans-72" transform="translate(202.591797 0)"/>
      <use xlink:href="#DejaVuSans-20" transform="translate(243.705078 0)"/>
      <use xlink:href="#DejaVuSans-28" transform="translate(275.492188 0)"/>
      <use xlink:href="#DejaVuSans-65" transform="translate(314.505859 0)"/>
      <use xlink:href="#DejaVuSans-56" transform="translate(376.029297 0)"/>
      <use xlink:href="#DejaVuSans-29" transform="translate(444.4375 0)"/>
     </g>
    </g>
   </g>
   <g id="patch_3">
    <path d="M 72 184.68 
L 518.4 184.68 
L 518.4 45.420795 
L 72 45.420795 
z
" clip-path="url(#p302916bb59)" style="fill: #add8e6; opacity: 0.5; stroke: #ffffff; stroke-linejoin: miter"/>
   </g>
   <g id="line2d_12">
    <path d="M 72 184.599806 
L 80.928 184.650619 
L 89.856 179.330402 
L 98.784 125.92134 
L 107.712 125.7807 
L 116.64 134.907533 
L 125.568 181.010625 
L 134.496 184.422094 
L 143.424 176.776448 
L 152.352 181.840973 
L 161.28 184.061872 
L 170.208 182.192286 
L 179.136 159.134349 
L 188.064 162.07409 
L 196.992 180.772576 
L 205.92 180.003934 
L 214.848 182.477197 
L 223.776 183.723499 
L 232.704 183.339268 
L 241.632 175.437269 
L 250.56 177.12716 
L 259.488 177.149834 
L 268.416 179.857393 
L 277.344 184.119694 
L 286.272 174.484986 
L 295.2 174.909117 
L 304.128 181.386423 
L 313.056 176.561269 
L 321.984 177.12307 
L 330.912 180.512354 
L 339.84 183.338278 
L 348.768 181.698372 
L 357.696 184.616129 
L 366.624 179.712992 
L 375.552 181.045708 
L 384.48 177.566789 
L 393.408 179.113308 
L 402.336 179.16597 
L 411.264 181.265761 
L 420.192 181.757479 
L 429.12 179.876589 
L 438.048 178.289608 
L 446.976 181.972444 
L 455.904 180.70297 
L 464.832 181.778166 
L 473.76 183.139142 
L 482.688 183.64529 
L 491.616 183.615752 
L 500.544 182.093919 
L 509.472 184.233973 
L 518.4 184.670364 
" clip-path="url(#p302916bb59)" style="fill: none; stroke: #4c72b0; stroke-width: 1.5; stroke-linecap: round"/>
   </g>
   <g id="line2d_13">
    <path d="M 72 183.539551 
L 80.928 182.95797 
L 89.856 179.223043 
L 98.784 180.109134 
L 107.712 174.671417 
L 116.64 179.816908 
L 125.568 179.733533 
L 134.496 182.666157 
L 143.424 174.808076 
L 152.352 178.955036 
L 161.28 183.770114 
L 170.208 181.636037 
L 179.136 180.110899 
L 188.064 181.37985 
L 196.992 178.894421 
L 205.92 178.020594 
L 214.848 183.436343 
L 223.776 182.377129 
L 232.704 181.731246 
L 241.632 183.855655 
L 250.56 183.230476 
L 259.488 175.6595 
L 268.416 177.460999 
L 277.344 183.731981 
L 286.272 174.595263 
L 295.2 177.735578 
L 304.128 181.440072 
L 313.056 177.480282 
L 321.984 176.235682 
L 330.912 180.273869 
L 339.84 184.379295 
L 348.768 180.82505 
L 357.696 182.793115 
L 366.624 180.265442 
L 375.552 179.816944 
L 384.48 175.889595 
L 393.408 178.069303 
L 402.336 178.831472 
L 411.264 179.153446 
L 420.192 180.393738 
L 429.12 179.858452 
L 438.048 178.039703 
L 446.976 178.360956 
L 455.904 180.660933 
L 464.832 181.795429 
L 473.76 178.777077 
L 482.688 183.661947 
L 491.616 174.774826 
L 500.544 176.151164 
L 509.472 183.187566 
L 518.4 184.674869 
" clip-path="url(#p302916bb59)" style="fill: none; stroke: #dd8452; stroke-width: 1.5; stroke-linecap: round"/>
   </g>
   <g id="line2d_14">
    <path d="M 72 183.854055 
L 80.928 183.457037 
L 89.856 181.791081 
L 98.784 154.577818 
L 107.712 154.721918 
L 116.64 160.259824 
L 125.568 181.629612 
L 134.496 183.463653 
L 143.424 179.711762 
L 152.352 181.338691 
L 161.28 184.169342 
L 170.208 183.373049 
L 179.136 176.451998 
L 188.064 179.459686 
L 196.992 182.486291 
L 205.92 182.054235 
L 214.848 184.229288 
L 223.776 183.923986 
L 232.704 183.473525 
L 241.632 183.522154 
L 250.56 184.263115 
L 259.488 182.729176 
L 268.416 182.879189 
L 277.344 183.800808 
L 286.272 182.401079 
L 295.2 182.609806 
L 304.128 182.998176 
L 313.056 184.010845 
L 321.984 182.974474 
L 330.912 184.055791 
L 339.84 184.595436 
L 348.768 182.857423 
L 357.696 183.714883 
L 366.624 183.031743 
L 375.552 184.172607 
L 384.48 184.532316 
L 393.408 184.191788 
L 402.336 183.677101 
L 411.264 184.28457 
L 420.192 183.557554 
L 429.12 183.602728 
L 438.048 184.337212 
L 446.976 183.236533 
L 455.904 184.004803 
L 464.832 184.203545 
L 473.76 183.992819 
L 482.688 184.351764 
L 491.616 182.547072 
L 500.544 183.992169 
L 509.472 184.032496 
L 518.4 184.058561 
" clip-path="url(#p302916bb59)" style="fill: none; stroke: #55a868; stroke-width: 1.5; stroke-linecap: round"/>
   </g>
   <g id="line2d_15">
    <path d="M 72 182.964596 
L 80.928 182.479479 
L 89.856 33.48 
L 98.784 183.681401 
L 107.712 183.941827 
L 116.64 182.410833 
L 125.568 182.144099 
L 134.496 182.930177 
L 143.424 181.451128 
L 152.352 183.063337 
L 161.28 183.689588 
L 170.208 181.873027 
L 179.136 183.83295 
L 188.064 183.303761 
L 196.992 183.104132 
L 205.92 182.932474 
L 214.848 183.45102 
L 223.776 183.787595 
L 232.704 184.283829 
L 241.632 183.62137 
L 250.56 183.475595 
L 259.488 129.632794 
L 268.416 177.506259 
L 277.344 184.013777 
L 286.272 180.135203 
L 295.2 182.942306 
L 304.128 183.423153 
L 313.056 183.118231 
L 321.984 176.766553 
L 330.912 183.963114 
L 339.84 183.864415 
L 348.768 180.797924 
L 357.696 183.868121 
L 366.624 182.045653 
L 375.552 184.3802 
L 384.48 184.053302 
L 393.408 183.609678 
L 402.336 184.062806 
L 411.264 183.939359 
L 420.192 181.959797 
L 429.12 184.45488 
L 438.048 183.994515 
L 446.976 183.065943 
L 455.904 183.229996 
L 464.832 184.35728 
L 473.76 184.58021 
L 482.688 183.950403 
L 491.616 184.615054 
L 500.544 183.180261 
L 509.472 183.224255 
L 518.4 184.655231 
" clip-path="url(#p302916bb59)" style="fill: none; stroke: #c44e52; stroke-width: 1.5; stroke-linecap: round"/>
   </g>
   <g id="patch_4">
    <path d="M 72 192.24 
L 72 25.92 
" style="fill: none; stroke: #ffffff; stroke-width: 1.25; stroke-linejoin: miter; stroke-linecap: square"/>
   </g>
   <g id="patch_5">
    <path d="M 518.4 192.24 
L 518.4 25.92 
" style="fill: none; stroke: #ffffff; stroke-width: 1.25; stroke-linejoin: miter; stroke-linecap: square"/>
   </g>
   <g id="patch_6">
    <path d="M 72 192.24 
L 518.4 192.24 
" style="fill: none; stroke: #ffffff; stroke-width: 1.25; stroke-linejoin: miter; stroke-linecap: square"/>
   </g>
   <g id="patch_7">
    <path d="M 72 25.92 
L 518.4 25.92 
" style="fill: none; stroke: #ffffff; stroke-width: 1.25; stroke-linejoin: miter; stroke-linecap: square"/>
   </g>
   <g id="text_14">
    <!-- chemical accuracy -->
    <g style="fill: #262626" transform="translate(397.62075 61.016092) scale(0.12 -0.12)">
     <defs>
      <path id="DejaVuSans-63" d="M 3122 3366 
L 3122 2828 
Q 2878 2963 2633 3030 
Q 2388 3097 2138 3097 
Q 1578 3097 1268 2742 
Q 959 2388 959 1747 
Q 959 1106 1268 751 
Q 1578 397 2138 397 
Q 2388 397 2633 464 
Q 2878 531 3122 666 
L 3122 134 
Q 2881 22 2623 -34 
Q 2366 -91 2075 -91 
Q 1284 -91 818 406 
Q 353 903 353 1747 
Q 353 2603 823 3093 
Q 1294 3584 2113 3584 
Q 2378 3584 2631 3529 
Q 2884 3475 3122 3366 
z
" transform="scale(0.015625)"/>
      <path id="DejaVuSans-69" d="M 603 3500 
L 1178 3500 
L 1178 0 
L 603 0 
L 603 3500 
z
M 603 4863 
L 1178 4863 
L 1178 4134 
L 603 4134 
L 603 4863 
z
" transform="scale(0.015625)"/>
      <path id="DejaVuSans-61" d="M 2194 1759 
Q 1497 1759 1228 1600 
Q 959 1441 959 1056 
Q 959 750 1161 570 
Q 1363 391 1709 391 
Q 2188 391 2477 730 
Q 2766 1069 2766 1631 
L 2766 1759 
L 2194 1759 
z
M 3341 1997 
L 3341 0 
L 2766 0 
L 2766 531 
Q 2569 213 2275 61 
Q 1981 -91 1556 -91 
Q 1019 -91 701 211 
Q 384 513 384 1019 
Q 384 1609 779 1909 
Q 1175 2209 1959 2209 
L 2766 2209 
L 2766 2266 
Q 2766 2663 2505 2880 
Q 2244 3097 1772 3097 
Q 1472 3097 1187 3025 
Q 903 2953 641 2809 
L 641 3341 
Q 956 3463 1253 3523 
Q 1550 3584 1831 3584 
Q 2591 3584 2966 3190 
Q 3341 2797 3341 1997 
z
" transform="scale(0.015625)"/>
      <path id="DejaVuSans-6c" d="M 603 4863 
L 1178 4863 
L 1178 0 
L 603 0 
L 603 4863 
z
" transform="scale(0.015625)"/>
      <path id="DejaVuSans-75" d="M 544 1381 
L 544 3500 
L 1119 3500 
L 1119 1403 
Q 1119 906 1312 657 
Q 1506 409 1894 409 
Q 2359 409 2629 706 
Q 2900 1003 2900 1516 
L 2900 3500 
L 3475 3500 
L 3475 0 
L 2900 0 
L 2900 538 
Q 2691 219 2414 64 
Q 2138 -91 1772 -91 
Q 1169 -91 856 284 
Q 544 659 544 1381 
z
M 1991 3584 
L 1991 3584 
z
" transform="scale(0.015625)"/>
      <path id="DejaVuSans-79" d="M 2059 -325 
Q 1816 -950 1584 -1140 
Q 1353 -1331 966 -1331 
L 506 -1331 
L 506 -850 
L 844 -850 
Q 1081 -850 1212 -737 
Q 1344 -625 1503 -206 
L 1606 56 
L 191 3500 
L 800 3500 
L 1894 763 
L 2988 3500 
L 3597 3500 
L 2059 -325 
z
" transform="scale(0.015625)"/>
     </defs>
     <use xlink:href="#DejaVuSans-63"/>
     <use xlink:href="#DejaVuSans-68" transform="translate(54.980469 0)"/>
     <use xlink:href="#DejaVuSans-65" transform="translate(118.359375 0)"/>
     <use xlink:href="#DejaVuSans-6d" transform="translate(179.882812 0)"/>
     <use xlink:href="#DejaVuSans-69" transform="translate(277.294922 0)"/>
     <use xlink:href="#DejaVuSans-63" transform="translate(305.078125 0)"/>
     <use xlink:href="#DejaVuSans-61" transform="translate(360.058594 0)"/>
     <use xlink:href="#DejaVuSans-6c" transform="translate(421.337891 0)"/>
     <use xlink:href="#DejaVuSans-20" transform="translate(449.121094 0)"/>
     <use xlink:href="#DejaVuSans-61" transform="translate(480.908203 0)"/>
     <use xlink:href="#DejaVuSans-63" transform="translate(542.1875 0)"/>
     <use xlink:href="#DejaVuSans-63" transform="translate(597.167969 0)"/>
     <use xlink:href="#DejaVuSans-75" transform="translate(652.148438 0)"/>
     <use xlink:href="#DejaVuSans-72" transform="translate(715.527344 0)"/>
     <use xlink:href="#DejaVuSans-61" transform="translate(756.640625 0)"/>
     <use xlink:href="#DejaVuSans-63" transform="translate(817.919922 0)"/>
     <use xlink:href="#DejaVuSans-79" transform="translate(872.900391 0)"/>
    </g>
   </g>
   <g id="legend_1">
    <g id="patch_8">
     <path d="M 374.769375 137.300625 
L 510 137.300625 
Q 512.4 137.300625 512.4 134.900625 
L 512.4 83.259375 
Q 512.4 80.859375 510 80.859375 
L 374.769375 80.859375 
Q 372.369375 80.859375 372.369375 83.259375 
L 372.369375 134.900625 
Q 372.369375 137.300625 374.769375 137.300625 
L 374.769375 137.300625 
z
" style="fill: none; opacity: 0"/>
    </g>
    <g id="text_15">
     <!-- molecular state index -->
     <g style="fill: #262626" transform="translate(377.169375 94.7775) scale(0.12 -0.12)">
      <defs>
       <path id="DejaVuSans-78" d="M 3513 3500 
L 2247 1797 
L 3578 0 
L 2900 0 
L 1881 1375 
L 863 0 
L 184 0 
L 1544 1831 
L 300 3500 
L 978 3500 
L 1906 2253 
L 2834 3500 
L 3513 3500 
z
" transform="scale(0.015625)"/>
      </defs>
      <use xlink:href="#DejaVuSans-6d"/>
      <use xlink:href="#DejaVuSans-6f" transform="translate(97.412109 0)"/>
      <use xlink:href="#DejaVuSans-6c" transform="translate(158.59375 0)"/>
      <use xlink:href="#DejaVuSans-65" transform="translate(186.376953 0)"/>
      <use xlink:href="#DejaVuSans-63" transform="translate(247.900391 0)"/>
      <use xlink:href="#DejaVuSans-75" transform="translate(302.880859 0)"/>
      <use xlink:href="#DejaVuSans-6c" transform="translate(366.259766 0)"/>
      <use xlink:href="#DejaVuSans-61" transform="translate(394.042969 0)"/>
      <use xlink:href="#DejaVuSans-72" transform="translate(455.322266 0)"/>
      <use xlink:href="#DejaVuSans-20" transform="translate(496.435547 0)"/>
      <use xlink:href="#DejaVuSans-73" transform="translate(528.222656 0)"/>
      <use xlink:href="#DejaVuSans-74" transform="translate(580.322266 0)"/>
      <use xlink:href="#DejaVuSans-61" transform="translate(619.53125 0)"/>
      <use xlink:href="#DejaVuSans-74" transform="translate(680.810547 0)"/>
      <use xlink:href="#DejaVuSans-65" transform="translate(720.019531 0)"/>
      <use xlink:href="#DejaVuSans-20" transform="translate(781.542969 0)"/>
      <use xlink:href="#DejaVuSans-69" transform="translate(813.330078 0)"/>
      <use xlink:href="#DejaVuSans-6e" transform="translate(841.113281 0)"/>
      <use xlink:href="#DejaVuSans-64" transform="translate(904.492188 0)"/>
      <use xlink:href="#DejaVuSans-65" transform="translate(967.96875 0)"/>
      <use xlink:href="#DejaVuSans-78" transform="translate(1027.742188 0)"/>
     </g>
    </g>
    <g id="line2d_16">
     <path d="M 389.149688 108.19125 
L 401.149688 108.19125 
L 413.149688 108.19125 
" style="fill: none; stroke: #4c72b0; stroke-width: 1.5; stroke-linecap: round"/>
    </g>
    <g id="text_16">
     <!-- 0 -->
     <g style="fill: #262626" transform="translate(422.749688 112.39125) scale(0.12 -0.12)">
      <use xlink:href="#DejaVuSans-30"/>
     </g>
    </g>
    <g id="line2d_17">
     <path d="M 389.149688 125.805 
L 401.149688 125.805 
L 413.149688 125.805 
" style="fill: none; stroke: #dd8452; stroke-width: 1.5; stroke-linecap: round"/>
    </g>
    <g id="text_17">
     <!-- 1 -->
     <g style="fill: #262626" transform="translate(422.749688 130.005) scale(0.12 -0.12)">
      <use xlink:href="#DejaVuSans-31"/>
     </g>
    </g>
    <g id="line2d_18">
     <path d="M 454.384688 108.19125 
L 466.384688 108.19125 
L 478.384688 108.19125 
" style="fill: none; stroke: #55a868; stroke-width: 1.5; stroke-linecap: round"/>
    </g>
    <g id="text_18">
     <!-- 2 -->
     <g style="fill: #262626" transform="translate(487.984688 112.39125) scale(0.12 -0.12)">
      <use xlink:href="#DejaVuSans-32"/>
     </g>
    </g>
    <g id="line2d_19">
     <path d="M 454.384688 125.805 
L 466.384688 125.805 
L 478.384688 125.805 
" style="fill: none; stroke: #c44e52; stroke-width: 1.5; stroke-linecap: round"/>
    </g>
    <g id="text_19">
     <!-- 3 -->
     <g style="fill: #262626" transform="translate(487.984688 130.005) scale(0.12 -0.12)">
      <use xlink:href="#DejaVuSans-33"/>
     </g>
    </g>
   </g>
  </g>
 </g>
 <defs>
  <clipPath id="p302916bb59">
   <rect x="72" y="25.92" width="446.4" height="166.32"/>
  </clipPath>
 </defs>
</svg>
