<?xml version="1.0" encoding="utf-8" standalone="no"?>
<!DOCTYPE svg PUBLIC "-//W3C//DTD SVG 1.1//EN"
  "http://www.w3.org/Graphics/SVG/1.1/DTD/svg11.dtd">
<svg xmlns:xlink="http://www.w3.org/1999/xlink" width="576pt" height="288pt" viewBox="0 0 576 288" xmlns="http://www.w3.org/2000/svg" version="1.1">
 <metadata>
  <rdf:RDF xmlns:dc="http://purl.org/dc/elements/1.1/" xmlns:cc="http://creativecommons.org/ns#" xmlns:rdf="http://www.w3.org/1999/02/22-rdf-syntax-ns#">
   <cc:Work>
    <dc:type rdf:resource="http://purl.org/dc/dcmitype/StillImage"/>
    <dc:date>2025-06-02T16:44:23.975003</dc:date>
    <dc:format>image/svg+xml</dc:format>
    <dc:creator>
     <cc:Agent>
      <dc:title>Matplotlib v3.10.0, https://matplotlib.org/</dc:title>
     </cc:Agent>
    </dc:creator>
   </cc:Work>
  </rdf:RDF>
 </metadata>
 <defs>
  <style type="text/css">*{stroke-linejoin: round; stroke-linecap: butt}</style>
 </defs>
 <g id="figure_1">
  <g id="patch_1">
   <path d="M 0 288 
L 576 288 
L 576 0 
L 0 0 
L 0 288 
z
" style="fill: none"/>
  </g>
  <g id="axes_1">
   <g id="patch_2">
    <path d="M 72 256.32 
L 518.4 256.32 
L 518.4 34.56 
L 72 34.56 
L 72 256.32 
z
" style="fill: none"/>
   </g>
   <g id="matplotlib.axis_1">
    <g id="xtick_1">
     <g id="line2d_1">
      <path d="M 92.290909 256.32 
L 92.290909 34.56 
" clip-path="url(#pc653380cb9)" style="fill: none; stroke: #ffffff; stroke-linecap: round"/>
     </g>
     <g id="text_1">
      <!-- 1 -->
      <g style="fill: #262626" transform="translate(88.791534 274.178281) scale(0.11 -0.11)">
       <defs>
        <path id="DejaVuSans-31" d="M 794 531 
L 1825 531 
L 1825 4091 
L 703 3866 
L 703 4441 
L 1819 4666 
L 2450 4666 
L 2450 531 
L 3481 531 
L 3481 0 
L 794 0 
L 794 531 
z
" transform="scale(0.015625)"/>
       </defs>
       <use xlink:href="#DejaVuSans-31"/>
      </g>
     </g>
    </g>
    <g id="xtick_2">
     <g id="line2d_2">
      <path d="M 173.454545 256.32 
L 173.454545 34.56 
" clip-path="url(#pc653380cb9)" style="fill: none; stroke: #ffffff; stroke-linecap: round"/>
     </g>
     <g id="text_2">
      <!-- 2 -->
      <g style="fill: #262626" transform="translate(169.95517 274.178281) scale(0.11 -0.11)">
       <defs>
        <path id="DejaVuSans-32" d="M 1228 531 
L 3431 531 
L 3431 0 
L 469 0 
L 469 531 
Q 828 903 1448 1529 
Q 2069 2156 2228 2338 
Q 2531 2678 2651 2914 
Q 2772 3150 2772 3378 
Q 2772 3750 2511 3984 
Q 2250 4219 1831 4219 
Q 1534 4219 1204 4116 
Q 875 4013 500 3803 
L 500 4441 
Q 881 4594 1212 4672 
Q 1544 4750 1819 4750 
Q 2544 4750 2975 4387 
Q 3406 4025 3406 3419 
Q 3406 3131 3298 2873 
Q 3191 2616 2906 2266 
Q 2828 2175 2409 1742 
Q 1991 1309 1228 531 
z
" transform="scale(0.015625)"/>
       </defs>
       <use xlink:href="#DejaVuSans-32"/>
      </g>
     </g>
    </g>
    <g id="xtick_3">
     <g id="line2d_3">
      <path d="M 254.618182 256.32 
L 254.618182 34.56 
" clip-path="url(#pc653380cb9)" style="fill: none; stroke: #ffffff; stroke-linecap: round"/>
     </g>
     <g id="text_3">
      <!-- 3 -->
      <g style="fill: #262626" transform="translate(251.118807 274.178281) scale(0.11 -0.11)">
       <defs>
        <path id="DejaVuSans-33" d="M 2597 2516 
Q 3050 2419 3304 2112 
Q 3559 1806 3559 1356 
Q 3559 666 3084 287 
Q 2609 -91 1734 -91 
Q 1441 -91 1130 -33 
Q 819 25 488 141 
L 488 750 
Q 750 597 1062 519 
Q 1375 441 1716 441 
Q 2309 441 2620 675 
Q 2931 909 2931 1356 
Q 2931 1769 2642 2001 
Q 2353 2234 1838 2234 
L 1294 2234 
L 1294 2753 
L 1863 2753 
Q 2328 2753 2575 2939 
Q 2822 3125 2822 3475 
Q 2822 3834 2567 4026 
Q 2313 4219 1838 4219 
Q 1578 4219 1281 4162 
Q 984 4106 628 3988 
L 628 4550 
Q 988 4650 1302 4700 
Q 1616 4750 1894 4750 
Q 2613 4750 3031 4423 
Q 3450 4097 3450 3541 
Q 3450 3153 3228 2886 
Q 3006 2619 2597 2516 
z
" transform="scale(0.015625)"/>
       </defs>
       <use xlink:href="#DejaVuSans-33"/>
      </g>
     </g>
    </g>
    <g id="xtick_4">
     <g id="line2d_4">
      <path d="M 335.781818 256.32 
L 335.781818 34.56 
" clip-path="url(#pc653380cb9)" style="fill: none; stroke: #ffffff; stroke-linecap: round"/>
     </g>
     <g id="text_4">
      <!-- 4 -->
      <g style="fill: #262626" transform="translate(332.282443 274.178281) scale(0.11 -0.11)">
       <defs>
        <path id="DejaVuSans-34" d="M 2419 4116 
L 825 1625 
L 2419 1625 
L 2419 4116 
z
M 2253 4666 
L 3047 4666 
L 3047 1625 
L 3713 1625 
L 3713 1100 
L 3047 1100 
L 3047 0 
L 2419 0 
L 2419 1100 
L 313 1100 
L 313 1709 
L 2253 4666 
z
" transform="scale(0.015625)"/>
       </defs>
       <use xlink:href="#DejaVuSans-34"/>
      </g>
     </g>
    </g>
    <g id="xtick_5">
     <g id="line2d_5">
      <path d="M 416.945455 256.32 
L 416.945455 34.56 
" clip-path="url(#pc653380cb9)" style="fill: none; stroke: #ffffff; stroke-linecap: round"/>
     </g>
     <g id="text_5">
      <!-- 5 -->
      <g style="fill: #262626" transform="translate(413.44608 274.178281) scale(0.11 -0.11)">
       <defs>
        <path id="DejaVuSans-35" d="M 691 4666 
L 3169 4666 
L 3169 4134 
L 1269 4134 
L 1269 2991 
Q 1406 3038 1543 3061 
Q 1681 3084 1819 3084 
Q 2600 3084 3056 2656 
Q 3513 2228 3513 1497 
Q 3513 744 3044 326 
Q 2575 -91 1722 -91 
Q 1428 -91 1123 -41 
Q 819 9 494 109 
L 494 744 
Q 775 591 1075 516 
Q 1375 441 1709 441 
Q 2250 441 2565 725 
Q 2881 1009 2881 1497 
Q 2881 1984 2565 2268 
Q 2250 2553 1709 2553 
Q 1456 2553 1204 2497 
Q 953 2441 691 2322 
L 691 4666 
z
" transform="scale(0.015625)"/>
       </defs>
       <use xlink:href="#DejaVuSans-35"/>
      </g>
     </g>
    </g>
    <g id="xtick_6">
     <g id="line2d_6">
      <path d="M 498.109091 256.32 
L 498.109091 34.56 
" clip-path="url(#pc653380cb9)" style="fill: none; stroke: #ffffff; stroke-linecap: round"/>
     </g>
     <g id="text_6">
      <!-- 6 -->
      <g style="fill: #262626" transform="translate(494.609716 274.178281) scale(0.11 -0.11)">
       <defs>
        <path id="DejaVuSans-36" d="M 2113 2584 
Q 1688 2584 1439 2293 
Q 1191 2003 1191 1497 
Q 1191 994 1439 701 
Q 1688 409 2113 409 
Q 2538 409 2786 701 
Q 3034 994 3034 1497 
Q 3034 2003 2786 2293 
Q 2538 2584 2113 2584 
z
M 3366 4563 
L 3366 3988 
Q 3128 4100 2886 4159 
Q 2644 4219 2406 4219 
Q 1781 4219 1451 3797 
Q 1122 3375 1075 2522 
Q 1259 2794 1537 2939 
Q 1816 3084 2150 3084 
Q 2853 3084 3261 2657 
Q 3669 2231 3669 1497 
Q 3669 778 3244 343 
Q 2819 -91 2113 -91 
Q 1303 -91 875 529 
Q 447 1150 447 2328 
Q 447 3434 972 4092 
Q 1497 4750 2381 4750 
Q 2619 4750 2861 4703 
Q 3103 4656 3366 4563 
z
" transform="scale(0.015625)"/>
       </defs>
       <use xlink:href="#DejaVuSans-36"/>
      </g>
     </g>
    </g>
    <g id="text_7">
     <!-- Bond Length (Angstrom) -->
     <g style="fill: #262626" transform="translate(197.02375 292.623438) scale(0.16 -0.16)">
      <defs>
       <path id="DejaVuSans-42" d="M 1259 2228 
L 1259 519 
L 2272 519 
Q 2781 519 3026 730 
Q 3272 941 3272 1375 
Q 3272 1813 3026 2020 
Q 2781 2228 2272 2228 
L 1259 2228 
z
M 1259 4147 
L 1259 2741 
L 2194 2741 
Q 2656 2741 2882 2914 
Q 3109 3088 3109 3444 
Q 3109 3797 2882 3972 
Q 2656 4147 2194 4147 
L 1259 4147 
z
M 628 4666 
L 2241 4666 
Q 2963 4666 3353 4366 
Q 3744 4066 3744 3513 
Q 3744 3084 3544 2831 
Q 3344 2578 2956 2516 
Q 3422 2416 3680 2098 
Q 3938 1781 3938 1306 
Q 3938 681 3513 340 
Q 3088 0 2303 0 
L 628 0 
L 628 4666 
z
" transform="scale(0.015625)"/>
       <path id="DejaVuSans-6f" d="M 1959 3097 
Q 1497 3097 1228 2736 
Q 959 2375 959 1747 
Q 959 1119 1226 758 
Q 1494 397 1959 397 
Q 2419 397 2687 759 
Q 2956 1122 2956 1747 
Q 2956 2369 2687 2733 
Q 2419 3097 1959 3097 
z
M 1959 3584 
Q 2709 3584 3137 3096 
Q 3566 2609 3566 1747 
Q 3566 888 3137 398 
Q 2709 -91 1959 -91 
Q 1206 -91 779 398 
Q 353 888 353 1747 
Q 353 2609 779 3096 
Q 1206 3584 1959 3584 
z
" transform="scale(0.015625)"/>
       <path id="DejaVuSans-6e" d="M 3513 2113 
L 3513 0 
L 2938 0 
L 2938 2094 
Q 2938 2591 2744 2837 
Q 2550 3084 2163 3084 
Q 1697 3084 1428 2787 
Q 1159 2491 1159 1978 
L 1159 0 
L 581 0 
L 581 3500 
L 1159 3500 
L 1159 2956 
Q 1366 3272 1645 3428 
Q 1925 3584 2291 3584 
Q 2894 3584 3203 3211 
Q 3513 2838 3513 2113 
z
" transform="scale(0.015625)"/>
       <path id="DejaVuSans-64" d="M 2906 2969 
L 2906 4863 
L 3481 4863 
L 3481 0 
L 2906 0 
L 2906 525 
Q 2725 213 2448 61 
Q 2172 -91 1784 -91 
Q 1150 -91 751 415 
Q 353 922 353 1747 
Q 353 2572 751 3078 
Q 1150 3584 1784 3584 
Q 2172 3584 2448 3432 
Q 2725 3281 2906 2969 
z
M 947 1747 
Q 947 1113 1208 752 
Q 1469 391 1925 391 
Q 2381 391 2643 752 
Q 2906 1113 2906 1747 
Q 2906 2381 2643 2742 
Q 2381 3103 1925 3103 
Q 1469 3103 1208 2742 
Q 947 2381 947 1747 
z
" transform="scale(0.015625)"/>
       <path id="DejaVuSans-20" transform="scale(0.015625)"/>
       <path id="DejaVuSans-4c" d="M 628 4666 
L 1259 4666 
L 1259 531 
L 3531 531 
L 3531 0 
L 628 0 
L 628 4666 
z
" transform="scale(0.015625)"/>
       <path id="DejaVuSans-65" d="M 3597 1894 
L 3597 1613 
L 953 1613 
Q 991 1019 1311 708 
Q 1631 397 2203 397 
Q 2534 397 2845 478 
Q 3156 559 3463 722 
L 3463 178 
Q 3153 47 2828 -22 
Q 2503 -91 2169 -91 
Q 1331 -91 842 396 
Q 353 884 353 1716 
Q 353 2575 817 3079 
Q 1281 3584 2069 3584 
Q 2775 3584 3186 3129 
Q 3597 2675 3597 1894 
z
M 3022 2063 
Q 3016 2534 2758 2815 
Q 2500 3097 2075 3097 
Q 1594 3097 1305 2825 
Q 1016 2553 972 2059 
L 3022 2063 
z
" transform="scale(0.015625)"/>
       <path id="DejaVuSans-67" d="M 2906 1791 
Q 2906 2416 2648 2759 
Q 2391 3103 1925 3103 
Q 1463 3103 1205 2759 
Q 947 2416 947 1791 
Q 947 1169 1205 825 
Q 1463 481 1925 481 
Q 2391 481 2648 825 
Q 2906 1169 2906 1791 
z
M 3481 434 
Q 3481 -459 3084 -895 
Q 2688 -1331 1869 -1331 
Q 1566 -1331 1297 -1286 
Q 1028 -1241 775 -1147 
L 775 -588 
Q 1028 -725 1275 -790 
Q 1522 -856 1778 -856 
Q 2344 -856 2625 -561 
Q 2906 -266 2906 331 
L 2906 616 
Q 2728 306 2450 153 
Q 2172 0 1784 0 
Q 1141 0 747 490 
Q 353 981 353 1791 
Q 353 2603 747 3093 
Q 1141 3584 1784 3584 
Q 2172 3584 2450 3431 
Q 2728 3278 2906 2969 
L 2906 3500 
L 3481 3500 
L 3481 434 
z
" transform="scale(0.015625)"/>
       <path id="DejaVuSans-74" d="M 1172 4494 
L 1172 3500 
L 2356 3500 
L 2356 3053 
L 1172 3053 
L 1172 1153 
Q 1172 725 1289 603 
Q 1406 481 1766 481 
L 2356 481 
L 2356 0 
L 1766 0 
Q 1100 0 847 248 
Q 594 497 594 1153 
L 594 3053 
L 172 3053 
L 172 3500 
L 594 3500 
L 594 4494 
L 1172 4494 
z
" transform="scale(0.015625)"/>
       <path id="DejaVuSans-68" d="M 3513 2113 
L 3513 0 
L 2938 0 
L 2938 2094 
Q 2938 2591 2744 2837 
Q 2550 3084 2163 3084 
Q 1697 3084 1428 2787 
Q 1159 2491 1159 1978 
L 1159 0 
L 581 0 
L 581 4863 
L 1159 4863 
L 1159 2956 
Q 1366 3272 1645 3428 
Q 1925 3584 2291 3584 
Q 2894 3584 3203 3211 
Q 3513 2838 3513 2113 
z
" transform="scale(0.015625)"/>
       <path id="DejaVuSans-28" d="M 1984 4856 
Q 1566 4138 1362 3434 
Q 1159 2731 1159 2009 
Q 1159 1288 1364 580 
Q 1569 -128 1984 -844 
L 1484 -844 
Q 1016 -109 783 600 
Q 550 1309 550 2009 
Q 550 2706 781 3412 
Q 1013 4119 1484 4856 
L 1984 4856 
z
" transform="scale(0.015625)"/>
       <path id="DejaVuSans-41" d="M 2188 4044 
L 1331 1722 
L 3047 1722 
L 2188 4044 
z
M 1831 4666 
L 2547 4666 
L 4325 0 
L 3669 0 
L 3244 1197 
L 1141 1197 
L 716 0 
L 50 0 
L 1831 4666 
z
" transform="scale(0.015625)"/>
       <path id="DejaVuSans-73" d="M 2834 3397 
L 2834 2853 
Q 2591 2978 2328 3040 
Q 2066 3103 1784 3103 
Q 1356 3103 1142 2972 
Q 928 2841 928 2578 
Q 928 2378 1081 2264 
Q 1234 2150 1697 2047 
L 1894 2003 
Q 2506 1872 2764 1633 
Q 3022 1394 3022 966 
Q 3022 478 2636 193 
Q 2250 -91 1575 -91 
Q 1294 -91 989 -36 
Q 684 19 347 128 
L 347 722 
Q 666 556 975 473 
Q 1284 391 1588 391 
Q 1994 391 2212 530 
Q 2431 669 2431 922 
Q 2431 1156 2273 1281 
Q 2116 1406 1581 1522 
L 1381 1569 
Q 847 1681 609 1914 
Q 372 2147 372 2553 
Q 372 3047 722 3315 
Q 1072 3584 1716 3584 
Q 2034 3584 2315 3537 
Q 2597 3491 2834 3397 
z
" transform="scale(0.015625)"/>
       <path id="DejaVuSans-72" d="M 2631 2963 
Q 2534 3019 2420 3045 
Q 2306 3072 2169 3072 
Q 1681 3072 1420 2755 
Q 1159 2438 1159 1844 
L 1159 0 
L 581 0 
L 581 3500 
L 1159 3500 
L 1159 2956 
Q 1341 3275 1631 3429 
Q 1922 3584 2338 3584 
Q 2397 3584 2469 3576 
Q 2541 3569 2628 3553 
L 2631 2963 
z
" transform="scale(0.015625)"/>
       <path id="DejaVuSans-6d" d="M 3328 2828 
Q 3544 3216 3844 3400 
Q 4144 3584 4550 3584 
Q 5097 3584 5394 3201 
Q 5691 2819 5691 2113 
L 5691 0 
L 5113 0 
L 5113 2094 
Q 5113 2597 4934 2840 
Q 4756 3084 4391 3084 
Q 3944 3084 3684 2787 
Q 3425 2491 3425 1978 
L 3425 0 
L 2847 0 
L 2847 2094 
Q 2847 2600 2669 2842 
Q 2491 3084 2119 3084 
Q 1678 3084 1418 2786 
Q 1159 2488 1159 1978 
L 1159 0 
L 581 0 
L 581 3500 
L 1159 3500 
L 1159 2956 
Q 1356 3278 1631 3431 
Q 1906 3584 2284 3584 
Q 2666 3584 2933 3390 
Q 3200 3197 3328 2828 
z
" transform="scale(0.015625)"/>
       <path id="DejaVuSans-29" d="M 513 4856 
L 1013 4856 
Q 1481 4119 1714 3412 
Q 1947 2706 1947 2009 
Q 1947 1309 1714 600 
Q 1481 -109 1013 -844 
L 513 -844 
Q 928 -128 1133 580 
Q 1338 1288 1338 2009 
Q 1338 2731 1133 3434 
Q 928 4138 513 4856 
z
" transform="scale(0.015625)"/>
      </defs>
      <use xlink:href="#DejaVuSans-42"/>
      <use xlink:href="#DejaVuSans-6f" transform="translate(68.603516 0)"/>
      <use xlink:href="#DejaVuSans-6e" transform="translate(129.785156 0)"/>
      <use xlink:href="#DejaVuSans-64" transform="translate(193.164062 0)"/>
      <use xlink:href="#DejaVuSans-20" transform="translate(256.640625 0)"/>
      <use xlink:href="#DejaVuSans-4c" transform="translate(288.427734 0)"/>
      <use xlink:href="#DejaVuSans-65" transform="translate(342.390625 0)"/>
      <use xlink:href="#DejaVuSans-6e" transform="translate(403.914062 0)"/>
      <use xlink:href="#DejaVuSans-67" transform="translate(467.292969 0)"/>
      <use xlink:href="#DejaVuSans-74" transform="translate(530.769531 0)"/>
      <use xlink:href="#DejaVuSans-68" transform="translate(569.978516 0)"/>
      <use xlink:href="#DejaVuSans-20" transform="translate(633.357422 0)"/>
      <use xlink:href="#DejaVuSans-28" transform="translate(665.144531 0)"/>
      <use xlink:href="#DejaVuSans-41" transform="translate(704.158203 0)"/>
      <use xlink:href="#DejaVuSans-6e" transform="translate(772.566406 0)"/>
      <use xlink:href="#DejaVuSans-67" transform="translate(835.945312 0)"/>
      <use xlink:href="#DejaVuSans-73" transform="translate(899.421875 0)"/>
      <use xlink:href="#DejaVuSans-74" transform="translate(951.521484 0)"/>
      <use xlink:href="#DejaVuSans-72" transform="translate(990.730469 0)"/>
      <use xlink:href="#DejaVuSans-6f" transform="translate(1029.59375 0)"/>
      <use xlink:href="#DejaVuSans-6d" transform="translate(1090.775391 0)"/>
      <use xlink:href="#DejaVuSans-29" transform="translate(1188.1875 0)"/>
     </g>
    </g>
   </g>
   <g id="matplotlib.axis_2">
    <g id="ytick_1">
     <g id="line2d_7">
      <path d="M 72 246.24 
L 518.4 246.24 
" clip-path="url(#pc653380cb9)" style="fill: none; stroke: #ffffff; stroke-linecap: round"/>
     </g>
     <g id="text_8">
      <!-- 0 -->
      <g style="fill: #262626" transform="translate(55.50125 250.419141) scale(0.11 -0.11)">
       <defs>
        <path id="DejaVuSans-30" d="M 2034 4250 
Q 1547 4250 1301 3770 
Q 1056 3291 1056 2328 
Q 1056 1369 1301 889 
Q 1547 409 2034 409 
Q 2525 409 2770 889 
Q 3016 1369 3016 2328 
Q 3016 3291 2770 3770 
Q 2525 4250 2034 4250 
z
M 2034 4750 
Q 2819 4750 3233 4129 
Q 3647 3509 3647 2328 
Q 3647 1150 3233 529 
Q 2819 -91 2034 -91 
Q 1250 -91 836 529 
Q 422 1150 422 2328 
Q 422 3509 836 4129 
Q 1250 4750 2034 4750 
z
" transform="scale(0.015625)"/>
       </defs>
       <use xlink:href="#DejaVuSans-30"/>
      </g>
     </g>
    </g>
    <g id="ytick_2">
     <g id="line2d_8">
      <path d="M 72 218.155786 
L 518.4 218.155786 
" clip-path="url(#pc653380cb9)" style="fill: none; stroke: #ffffff; stroke-linecap: round"/>
     </g>
     <g id="text_9">
      <!-- 1 -->
      <g style="fill: #262626" transform="translate(55.50125 222.334926) scale(0.11 -0.11)">
       <use xlink:href="#DejaVuSans-31"/>
      </g>
     </g>
    </g>
    <g id="ytick_3">
     <g id="line2d_9">
      <path d="M 72 190.071571 
L 518.4 190.071571 
" clip-path="url(#pc653380cb9)" style="fill: none; stroke: #ffffff; stroke-linecap: round"/>
     </g>
     <g id="text_10">
      <!-- 2 -->
      <g style="fill: #262626" transform="translate(55.50125 194.250712) scale(0.11 -0.11)">
       <use xlink:href="#DejaVuSans-32"/>
      </g>
     </g>
    </g>
    <g id="ytick_4">
     <g id="line2d_10">
      <path d="M 72 161.987357 
L 518.4 161.987357 
" clip-path="url(#pc653380cb9)" style="fill: none; stroke: #ffffff; stroke-linecap: round"/>
     </g>
     <g id="text_11">
      <!-- 3 -->
      <g style="fill: #262626" transform="translate(55.50125 166.166497) scale(0.11 -0.11)">
       <use xlink:href="#DejaVuSans-33"/>
      </g>
     </g>
    </g>
    <g id="ytick_5">
     <g id="line2d_11">
      <path d="M 72 133.903142 
L 518.4 133.903142 
" clip-path="url(#pc653380cb9)" style="fill: none; stroke: #ffffff; stroke-linecap: round"/>
     </g>
     <g id="text_12">
      <!-- 4 -->
      <g style="fill: #262626" transform="translate(55.50125 138.082283) scale(0.11 -0.11)">
       <use xlink:href="#DejaVuSans-34"/>
      </g>
     </g>
    </g>
    <g id="ytick_6">
     <g id="line2d_12">
      <path d="M 72 105.818928 
L 518.4 105.818928 
" clip-path="url(#pc653380cb9)" style="fill: none; stroke: #ffffff; stroke-linecap: round"/>
     </g>
     <g id="text_13">
      <!-- 5 -->
      <g style="fill: #262626" transform="translate(55.50125 109.998068) scale(0.11 -0.11)">
       <use xlink:href="#DejaVuSans-35"/>
      </g>
     </g>
    </g>
    <g id="ytick_7">
     <g id="line2d_13">
      <path d="M 72 77.734713 
L 518.4 77.734713 
" clip-path="url(#pc653380cb9)" style="fill: none; stroke: #ffffff; stroke-linecap: round"/>
     </g>
     <g id="text_14">
      <!-- 6 -->
      <g style="fill: #262626" transform="translate(55.50125 81.913854) scale(0.11 -0.11)">
       <use xlink:href="#DejaVuSans-36"/>
      </g>
     </g>
    </g>
    <g id="ytick_8">
     <g id="line2d_14">
      <path d="M 72 49.650499 
L 518.4 49.650499 
" clip-path="url(#pc653380cb9)" style="fill: none; stroke: #ffffff; stroke-linecap: round"/>
     </g>
     <g id="text_15">
      <!-- 7 -->
      <g style="fill: #262626" transform="translate(55.50125 53.829639) scale(0.11 -0.11)">
       <defs>
        <path id="DejaVuSans-37" d="M 525 4666 
L 3525 4666 
L 3525 4397 
L 1831 0 
L 1172 0 
L 2766 4134 
L 525 4134 
L 525 4666 
z
" transform="scale(0.015625)"/>
       </defs>
       <use xlink:href="#DejaVuSans-37"/>
      </g>
     </g>
    </g>
    <g id="text_16">
     <!-- Energy (eV) -->
     <g style="fill: #262626" transform="translate(48.17375 192.63) rotate(-90) scale(0.16 -0.16)">
      <defs>
       <path id="DejaVuSans-45" d="M 628 4666 
L 3578 4666 
L 3578 4134 
L 1259 4134 
L 1259 2753 
L 3481 2753 
L 3481 2222 
L 1259 2222 
L 1259 531 
L 3634 531 
L 3634 0 
L 628 0 
L 628 4666 
z
" transform="scale(0.015625)"/>
       <path id="DejaVuSans-79" d="M 2059 -325 
Q 1816 -950 1584 -1140 
Q 1353 -1331 966 -1331 
L 506 -1331 
L 506 -850 
L 844 -850 
Q 1081 -850 1212 -737 
Q 1344 -625 1503 -206 
L 1606 56 
L 191 3500 
L 800 3500 
L 1894 763 
L 2988 3500 
L 3597 3500 
L 2059 -325 
z
" transform="scale(0.015625)"/>
       <path id="DejaVuSans-56" d="M 1831 0 
L 50 4666 
L 709 4666 
L 2188 738 
L 3669 4666 
L 4325 4666 
L 2547 0 
L 1831 0 
z
" transform="scale(0.015625)"/>
      </defs>
      <use xlink:href="#DejaVuSans-45"/>
      <use xlink:href="#DejaVuSans-6e" transform="translate(63.183594 0)"/>
      <use xlink:href="#DejaVuSans-65" transform="translate(126.5625 0)"/>
      <use xlink:href="#DejaVuSans-72" transform="translate(188.085938 0)"/>
      <use xlink:href="#DejaVuSans-67" transform="translate(227.449219 0)"/>
      <use xlink:href="#DejaVuSans-79" transform="translate(290.925781 0)"/>
      <use xlink:href="#DejaVuSans-20" transform="translate(350.105469 0)"/>
      <use xlink:href="#DejaVuSans-28" transform="translate(381.892578 0)"/>
      <use xlink:href="#DejaVuSans-65" transform="translate(420.90625 0)"/>
      <use xlink:href="#DejaVuSans-56" transform="translate(482.429688 0)"/>
      <use xlink:href="#DejaVuSans-29" transform="translate(550.837891 0)"/>
     </g>
    </g>
   </g>
   <g id="line2d_15">
    <path d="M 92.290909 171.482324 
L 100.407273 202.874005 
L 108.523636 223.380475 
L 116.64 235.686617 
L 124.756364 242.803009 
L 132.872727 245.869175 
L 140.989091 246.24 
L 149.105455 244.060355 
L 157.221818 240.242168 
L 165.338182 235.484373 
L 173.454545 230.037216 
L 181.570909 224.193997 
L 189.687273 218.049033 
L 197.803636 212.206441 
L 205.92 206.733775 
L 214.036364 201.448139 
L 222.152727 196.636751 
L 230.269091 192.318619 
L 238.385455 188.51568 
L 246.501818 185.172551 
L 254.618182 182.409075 
L 262.734545 180.082535 
L 270.850909 178.176968 
L 278.967273 176.626867 
L 287.083636 175.245091 
L 295.2 174.191359 
L 303.316364 173.389085 
L 311.432727 172.652151 
L 319.549091 172.095452 
L 327.665455 171.672065 
L 335.781818 171.33222 
L 343.898182 171.025381 
L 352.014545 170.816151 
L 360.130909 170.586055 
L 368.247273 170.447926 
L 376.363636 170.298591 
L 384.48 170.21737 
L 392.596364 170.142873 
L 400.712727 170.101879 
L 408.829091 170.059514 
L 416.945455 170.006586 
L 425.061818 169.964156 
L 433.178182 169.973719 
L 441.294545 169.945306 
L 449.410909 169.941136 
L 457.527273 169.94251 
L 465.643636 169.938869 
L 473.76 169.932451 
L 481.876364 169.914543 
L 489.992727 169.929512 
L 498.109091 169.930572 
" clip-path="url(#pc653380cb9)" style="fill: none; stroke: #4c72b0; stroke-width: 1.5; stroke-linecap: round"/>
   </g>
   <g id="line2d_16">
    <path d="M 92.290909 75.543339 
L 100.407273 103.510378 
L 108.523636 123.052805 
L 116.64 136.819272 
L 124.756364 146.43367 
L 132.872727 153.213594 
L 140.989091 157.843844 
L 149.105455 160.989962 
L 157.221818 162.971575 
L 165.338182 164.315678 
L 173.454545 165.171159 
L 181.570909 165.655304 
L 189.687273 165.965978 
L 197.803636 166.213376 
L 205.92 166.399318 
L 214.036364 166.603813 
L 222.152727 166.882513 
L 230.269091 167.127313 
L 238.385455 167.392938 
L 246.501818 167.691078 
L 254.618182 167.964157 
L 262.734545 168.166921 
L 270.850909 168.433832 
L 278.967273 168.717507 
L 287.083636 168.842832 
L 295.2 169.048955 
L 303.316364 169.234793 
L 311.432727 169.330476 
L 319.549091 169.428123 
L 327.665455 169.552433 
L 335.781818 169.660705 
L 343.898182 169.688391 
L 352.014545 169.75209 
L 360.130909 169.766985 
L 368.247273 169.791895 
L 376.363636 169.780171 
L 384.48 169.81624 
L 392.596364 169.835933 
L 400.712727 169.848608 
L 408.829091 169.866763 
L 416.945455 169.867608 
L 425.061818 169.855863 
L 433.178182 169.861572 
L 441.294545 169.883612 
L 449.410909 169.89493 
L 457.527273 169.869784 
L 465.643636 169.912845 
L 473.76 169.836242 
L 481.876364 169.848474 
L 489.992727 169.909674 
L 498.109091 169.922674 
" clip-path="url(#pc653380cb9)" style="fill: none; stroke: #dd8452; stroke-width: 1.5; stroke-linecap: round"/>
   </g>
   <g id="line2d_17">
    <path d="M 92.290909 64.515816 
L 100.407273 92.489507 
L 108.523636 111.903502 
L 116.64 125.136671 
L 124.756364 134.369508 
L 132.872727 140.58 
L 140.989091 144.674352 
L 149.105455 146.931679 
L 157.221818 147.903086 
L 165.338182 148.003142 
L 173.454545 147.432495 
L 181.570909 146.32196 
L 189.687273 144.772061 
L 197.803636 143.005286 
L 205.92 140.991217 
L 214.036364 138.738639 
L 222.152727 136.333279 
L 230.269091 133.76739 
L 238.385455 131.10646 
L 246.501818 128.411134 
L 254.618182 125.7444 
L 262.734545 123.141723 
L 270.850909 120.691808 
L 278.967273 118.429284 
L 287.083636 116.355619 
L 295.2 114.518973 
L 303.316364 112.908636 
L 311.432727 111.520477 
L 319.549091 110.316595 
L 327.665455 109.314372 
L 335.781818 108.470162 
L 343.898182 107.748125 
L 352.014545 107.170636 
L 360.130909 106.68352 
L 368.247273 106.299549 
L 376.363636 105.981741 
L 384.48 105.71837 
L 392.596364 105.503398 
L 400.712727 105.339119 
L 408.829091 105.196732 
L 416.945455 105.088268 
L 425.061818 105.00785 
L 433.178182 104.92934 
L 441.294545 104.881377 
L 449.410909 104.839976 
L 457.527273 104.804218 
L 465.643636 104.780722 
L 473.76 104.744278 
L 481.876364 104.740617 
L 489.992727 104.728401 
L 498.109091 104.718913 
" clip-path="url(#pc653380cb9)" style="fill: none; stroke: #55a868; stroke-width: 1.5; stroke-linecap: round"/>
   </g>
   <g id="line2d_18">
    <path d="M 92.290909 44.685914 
L 100.407273 72.11745 
L 108.523636 89.509287 
L 116.64 103.37404 
L 124.756364 111.598035 
L 132.872727 116.70146 
L 140.989091 119.592481 
L 149.105455 120.913979 
L 157.221818 121.116347 
L 165.338182 120.604845 
L 173.454545 119.612529 
L 181.570909 118.325674 
L 189.687273 116.942918 
L 197.803636 115.51223 
L 205.92 114.127407 
L 214.036364 112.829998 
L 222.152727 111.651092 
L 230.269091 110.594819 
L 238.385455 109.66628 
L 246.501818 108.849796 
L 254.618182 108.151663 
L 262.734545 107.091303 
L 270.850909 107.005019 
L 278.967273 106.640562 
L 287.083636 106.255606 
L 295.2 105.988069 
L 303.316364 105.750706 
L 311.432727 105.548869 
L 319.549091 105.329999 
L 327.665455 105.258086 
L 335.781818 105.147347 
L 343.898182 105.031076 
L 352.014545 104.984682 
L 360.130909 104.909569 
L 368.247273 104.88176 
L 376.363636 104.840092 
L 384.48 104.80495 
L 392.596364 104.78373 
L 400.712727 104.762511 
L 408.829091 104.729251 
L 416.945455 104.738075 
L 425.061818 104.723915 
L 433.178182 104.707821 
L 441.294545 104.702904 
L 449.410909 104.707699 
L 457.527273 104.705734 
L 465.643636 104.69723 
L 473.76 104.700629 
L 481.876364 104.686354 
L 489.992727 104.685321 
L 498.109091 104.696643 
" clip-path="url(#pc653380cb9)" style="fill: none; stroke: #c44e52; stroke-width: 1.5; stroke-linecap: round"/>
   </g>
   <g id="line2d_19">
    <path d="M 92.290909 171.42223 
L 100.407273 202.81347 
L 108.523636 223.366075 
L 116.64 236.135368 
L 124.756364 243.252979 
L 132.872727 246.24 
L 140.989091 246.21103 
L 149.105455 244.001802 
L 157.221818 240.249916 
L 165.338182 235.448203 
L 173.454545 229.981787 
L 181.570909 224.154781 
L 189.687273 218.209769 
L 197.803636 212.341685 
L 205.92 206.706869 
L 214.036364 201.427899 
L 222.152727 196.595064 
L 230.269091 192.266124 
L 238.385455 188.466517 
L 246.501818 185.191912 
L 254.618182 182.413781 
L 262.734545 180.087045 
L 270.850909 178.157999 
L 278.967273 176.570936 
L 287.083636 175.27271 
L 295.2 174.2153 
L 303.316364 173.356856 
L 311.432727 172.661765 
L 319.549091 172.100195 
L 327.665455 171.647417 
L 335.781818 171.283066 
L 343.898182 170.990448 
L 352.014545 170.755916 
L 360.130909 170.568339 
L 368.247273 170.418652 
L 376.363636 170.299486 
L 384.48 170.204853 
L 392.596364 170.1299 
L 400.712727 170.070697 
L 408.829091 170.024068 
L 416.945455 169.98745 
L 425.061818 169.958782 
L 433.178182 169.936409 
L 441.294545 169.919005 
L 449.410909 169.90551 
L 457.527273 169.895082 
L 465.643636 169.887052 
L 473.76 169.880891 
L 481.876364 169.876179 
L 489.992727 169.87259 
L 498.109091 169.869866 
" clip-path="url(#pc653380cb9)" style="fill: none; stroke-dasharray: 1.5,2.475; stroke-dashoffset: 0; stroke: #4c72b0; stroke-width: 1.5"/>
   </g>
   <g id="line2d_20">
    <path d="M 92.290909 75.492439 
L 100.407273 103.464522 
L 108.523636 123.039337 
L 116.64 136.79812 
L 124.756364 146.459673 
L 132.872727 153.194976 
L 140.989091 157.825949 
L 149.105455 160.946636 
L 157.221818 162.996393 
L 165.338182 164.304534 
L 173.454545 165.118259 
L 181.570909 165.620911 
L 189.687273 165.94481 
L 197.803636 166.181205 
L 205.92 166.388699 
L 214.036364 166.600772 
L 222.152727 166.832509 
L 230.269091 167.086493 
L 238.385455 167.357719 
L 246.501818 167.637436 
L 254.618182 167.915938 
L 262.734545 168.184355 
L 270.850909 168.435643 
L 278.967273 168.664938 
L 287.083636 168.869495 
L 295.2 169.048386 
L 303.316364 169.202099 
L 311.432727 169.33212 
L 319.549091 169.44056 
L 327.665455 169.529852 
L 335.781818 169.602523 
L 343.898182 169.661031 
L 352.014545 169.707663 
L 360.130909 169.744477 
L 368.247273 169.773277 
L 376.363636 169.795609 
L 384.48 169.812777 
L 392.596364 169.82586 
L 400.712727 169.835744 
L 408.829091 169.843143 
L 416.945455 169.84863 
L 425.061818 169.852657 
L 433.178182 169.85558 
L 441.294545 169.857675 
L 449.410909 169.859155 
L 457.527273 169.860184 
L 465.643636 169.860883 
L 473.76 169.861347 
L 481.876364 169.861645 
L 489.992727 169.861826 
L 498.109091 169.861929 
" clip-path="url(#pc653380cb9)" style="fill: none; stroke-dasharray: 1.5,2.475; stroke-dashoffset: 0; stroke: #dd8452; stroke-width: 1.5"/>
   </g>
   <g id="line2d_21">
    <path d="M 92.290909 64.462189 
L 100.407273 92.439322 
L 108.523636 111.867764 
L 116.64 125.33692 
L 124.756364 134.568508 
L 132.872727 140.730976 
L 140.989091 144.640014 
L 149.105455 146.881437 
L 157.221818 147.885379 
L 165.338182 147.971328 
L 173.454545 147.376134 
L 181.570909 146.272504 
L 189.687273 144.782622 
L 197.803636 142.989765 
L 205.92 140.949451 
L 214.036364 138.700619 
L 222.152727 136.276398 
L 230.269091 133.713157 
L 238.385455 131.056132 
L 246.501818 128.360385 
L 254.618182 125.687226 
L 262.734545 123.09785 
L 270.850909 120.646634 
L 278.967273 118.376119 
L 287.083636 116.314592 
L 295.2 114.476135 
L 303.316364 112.862431 
L 311.432727 111.46549 
L 319.549091 110.270595 
L 327.665455 109.258995 
L 335.781818 108.410106 
L 343.898182 107.70314 
L 352.014545 107.118216 
L 360.130909 106.637024 
L 368.247273 106.24316 
L 376.363636 105.922232 
L 384.48 105.661814 
L 392.596364 105.451306 
L 400.712727 105.281758 
L 408.829091 105.145676 
L 416.945455 105.03682 
L 425.061818 104.950033 
L 433.178182 104.881067 
L 441.294545 104.826442 
L 449.410909 104.783319 
L 457.527273 104.749387 
L 465.643636 104.722779 
L 473.76 104.701985 
L 481.876364 104.685792 
L 489.992727 104.673226 
L 498.109091 104.663512 
" clip-path="url(#pc653380cb9)" style="fill: none; stroke-dasharray: 1.5,2.475; stroke-dashoffset: 0; stroke: #55a868; stroke-width: 1.5"/>
   </g>
   <g id="line2d_22">
    <path d="M 92.290909 44.64 
L 100.407273 72.075743 
L 108.523636 90.759667 
L 116.64 103.32191 
L 124.756364 111.543647 
L 132.872727 116.660348 
L 140.989091 119.553683 
L 149.105455 120.868363 
L 157.221818 121.083558 
L 165.338182 120.558075 
L 173.454545 119.560328 
L 181.570909 118.289226 
L 189.687273 116.889474 
L 197.803636 115.463375 
L 205.92 114.080283 
L 214.036364 112.784363 
L 222.152727 111.60096 
L 230.269091 110.541768 
L 238.385455 109.608926 
L 246.501818 108.798186 
L 254.618182 108.101318 
L 262.734545 107.507869 
L 270.850909 107.006439 
L 278.967273 106.58555 
L 287.083636 106.234228 
L 295.2 105.942348 
L 303.316364 105.700815 
L 311.432727 105.501622 
L 319.549091 105.337833 
L 327.665455 105.203513 
L 335.781818 105.09363 
L 343.898182 105.003951 
L 352.014545 104.930933 
L 360.130909 104.871624 
L 368.247273 104.82357 
L 376.363636 104.784737 
L 384.48 104.753442 
L 392.596364 104.728293 
L 400.712727 104.708144 
L 408.829091 104.692051 
L 416.945455 104.679238 
L 425.061818 104.66907 
L 433.178182 104.661028 
L 441.294545 104.654688 
L 449.410909 104.649708 
L 457.527273 104.645809 
L 465.643636 104.642767 
L 473.76 104.640402 
L 481.876364 104.63857 
L 489.992727 104.637156 
L 498.109091 104.636068 
" clip-path="url(#pc653380cb9)" style="fill: none; stroke-dasharray: 1.5,2.475; stroke-dashoffset: 0; stroke: #c44e52; stroke-width: 1.5"/>
   </g>
   <g id="patch_3">
    <path d="M 72 256.32 
L 72 34.56 
" style="fill: none; stroke: #ffffff; stroke-width: 1.25; stroke-linejoin: miter; stroke-linecap: square"/>
   </g>
   <g id="patch_4">
    <path d="M 518.4 256.32 
L 518.4 34.56 
" style="fill: none; stroke: #ffffff; stroke-width: 1.25; stroke-linejoin: miter; stroke-linecap: square"/>
   </g>
   <g id="patch_5">
    <path d="M 72 256.32 
L 518.4 256.32 
" style="fill: none; stroke: #ffffff; stroke-width: 1.25; stroke-linejoin: miter; stroke-linecap: square"/>
   </g>
   <g id="patch_6">
    <path d="M 72 34.56 
L 518.4 34.56 
" style="fill: none; stroke: #ffffff; stroke-width: 1.25; stroke-linejoin: miter; stroke-linecap: square"/>
   </g>
   <g id="text_17">
    <!-- LiH Bond Stretch QSCI -->
    <g style="fill: #262626" transform="translate(183.9125 28.56) scale(0.2 -0.2)">
     <defs>
      <path id="DejaVuSans-69" d="M 603 3500 
L 1178 3500 
L 1178 0 
L 603 0 
L 603 3500 
z
M 603 4863 
L 1178 4863 
L 1178 4134 
L 603 4134 
L 603 4863 
z
" transform="scale(0.015625)"/>
      <path id="DejaVuSans-48" d="M 628 4666 
L 1259 4666 
L 1259 2753 
L 3553 2753 
L 3553 4666 
L 4184 4666 
L 4184 0 
L 3553 0 
L 3553 2222 
L 1259 2222 
L 1259 0 
L 628 0 
L 628 4666 
z
" transform="scale(0.015625)"/>
      <path id="DejaVuSans-53" d="M 3425 4513 
L 3425 3897 
Q 3066 4069 2747 4153 
Q 2428 4238 2131 4238 
Q 1616 4238 1336 4038 
Q 1056 3838 1056 3469 
Q 1056 3159 1242 3001 
Q 1428 2844 1947 2747 
L 2328 2669 
Q 3034 2534 3370 2195 
Q 3706 1856 3706 1288 
Q 3706 609 3251 259 
Q 2797 -91 1919 -91 
Q 1588 -91 1214 -16 
Q 841 59 441 206 
L 441 856 
Q 825 641 1194 531 
Q 1563 422 1919 422 
Q 2459 422 2753 634 
Q 3047 847 3047 1241 
Q 3047 1584 2836 1778 
Q 2625 1972 2144 2069 
L 1759 2144 
Q 1053 2284 737 2584 
Q 422 2884 422 3419 
Q 422 4038 858 4394 
Q 1294 4750 2059 4750 
Q 2388 4750 2728 4690 
Q 3069 4631 3425 4513 
z
" transform="scale(0.015625)"/>
      <path id="DejaVuSans-63" d="M 3122 3366 
L 3122 2828 
Q 2878 2963 2633 3030 
Q 2388 3097 2138 3097 
Q 1578 3097 1268 2742 
Q 959 2388 959 1747 
Q 959 1106 1268 751 
Q 1578 397 2138 397 
Q 2388 397 2633 464 
Q 2878 531 3122 666 
L 3122 134 
Q 2881 22 2623 -34 
Q 2366 -91 2075 -91 
Q 1284 -91 818 406 
Q 353 903 353 1747 
Q 353 2603 823 3093 
Q 1294 3584 2113 3584 
Q 2378 3584 2631 3529 
Q 2884 3475 3122 3366 
z
" transform="scale(0.015625)"/>
      <path id="DejaVuSans-51" d="M 2522 4238 
Q 1834 4238 1429 3725 
Q 1025 3213 1025 2328 
Q 1025 1447 1429 934 
Q 1834 422 2522 422 
Q 3209 422 3611 934 
Q 4013 1447 4013 2328 
Q 4013 3213 3611 3725 
Q 3209 4238 2522 4238 
z
M 3406 84 
L 4238 -825 
L 3475 -825 
L 2784 -78 
Q 2681 -84 2626 -87 
Q 2572 -91 2522 -91 
Q 1538 -91 948 567 
Q 359 1225 359 2328 
Q 359 3434 948 4092 
Q 1538 4750 2522 4750 
Q 3503 4750 4090 4092 
Q 4678 3434 4678 2328 
Q 4678 1516 4351 937 
Q 4025 359 3406 84 
z
" transform="scale(0.015625)"/>
      <path id="DejaVuSans-43" d="M 4122 4306 
L 4122 3641 
Q 3803 3938 3442 4084 
Q 3081 4231 2675 4231 
Q 1875 4231 1450 3742 
Q 1025 3253 1025 2328 
Q 1025 1406 1450 917 
Q 1875 428 2675 428 
Q 3081 428 3442 575 
Q 3803 722 4122 1019 
L 4122 359 
Q 3791 134 3420 21 
Q 3050 -91 2638 -91 
Q 1578 -91 968 557 
Q 359 1206 359 2328 
Q 359 3453 968 4101 
Q 1578 4750 2638 4750 
Q 3056 4750 3426 4639 
Q 3797 4528 4122 4306 
z
" transform="scale(0.015625)"/>
      <path id="DejaVuSans-49" d="M 628 4666 
L 1259 4666 
L 1259 0 
L 628 0 
L 628 4666 
z
" transform="scale(0.015625)"/>
     </defs>
     <use xlink:href="#DejaVuSans-4c"/>
     <use xlink:href="#DejaVuSans-69" transform="translate(55.712891 0)"/>
     <use xlink:href="#DejaVuSans-48" transform="translate(83.496094 0)"/>
     <use xlink:href="#DejaVuSans-20" transform="translate(158.691406 0)"/>
     <use xlink:href="#DejaVuSans-42" transform="translate(190.478516 0)"/>
     <use xlink:href="#DejaVuSans-6f" transform="translate(259.082031 0)"/>
     <use xlink:href="#DejaVuSans-6e" transform="translate(320.263672 0)"/>
     <use xlink:href="#DejaVuSans-64" transform="translate(383.642578 0)"/>
     <use xlink:href="#DejaVuSans-20" transform="translate(447.119141 0)"/>
     <use xlink:href="#DejaVuSans-53" transform="translate(478.90625 0)"/>
     <use xlink:href="#DejaVuSans-74" transform="translate(542.382812 0)"/>
     <use xlink:href="#DejaVuSans-72" transform="translate(581.591797 0)"/>
     <use xlink:href="#DejaVuSans-65" transform="translate(620.455078 0)"/>
     <use xlink:href="#DejaVuSans-74" transform="translate(681.978516 0)"/>
     <use xlink:href="#DejaVuSans-63" transform="translate(721.1875 0)"/>
     <use xlink:href="#DejaVuSans-68" transform="translate(776.167969 0)"/>
     <use xlink:href="#DejaVuSans-20" transform="translate(839.546875 0)"/>
     <use xlink:href="#DejaVuSans-51" transform="translate(871.333984 0)"/>
     <use xlink:href="#DejaVuSans-53" transform="translate(950.044922 0)"/>
     <use xlink:href="#DejaVuSans-43" transform="translate(1013.521484 0)"/>
     <use xlink:href="#DejaVuSans-49" transform="translate(1083.345703 0)"/>
    </g>
   </g>
   <g id="legend_1">
    <g id="patch_7">
     <path d="M 375.869375 92.765625 
L 510.7 92.765625 
Q 512.9 92.765625 512.9 90.565625 
L 512.9 42.26 
Q 512.9 40.06 510.7 40.06 
L 375.869375 40.06 
Q 373.669375 40.06 373.669375 42.26 
L 373.669375 90.565625 
Q 373.669375 92.765625 375.869375 92.765625 
L 375.869375 92.765625 
z
" style="fill: none; opacity: 0"/>
    </g>
    <g id="text_18">
     <!-- molecular state index -->
     <g style="fill: #262626" transform="translate(378.069375 53.578125) scale(0.12 -0.12)">
      <defs>
       <path id="DejaVuSans-6c" d="M 603 4863 
L 1178 4863 
L 1178 0 
L 603 0 
L 603 4863 
z
" transform="scale(0.015625)"/>
       <path id="DejaVuSans-75" d="M 544 1381 
L 544 3500 
L 1119 3500 
L 1119 1403 
Q 1119 906 1312 657 
Q 1506 409 1894 409 
Q 2359 409 2629 706 
Q 2900 1003 2900 1516 
L 2900 3500 
L 3475 3500 
L 3475 0 
L 2900 0 
L 2900 538 
Q 2691 219 2414 64 
Q 2138 -91 1772 -91 
Q 1169 -91 856 284 
Q 544 659 544 1381 
z
M 1991 3584 
L 1991 3584 
z
" transform="scale(0.015625)"/>
       <path id="DejaVuSans-61" d="M 2194 1759 
Q 1497 1759 1228 1600 
Q 959 1441 959 1056 
Q 959 750 1161 570 
Q 1363 391 1709 391 
Q 2188 391 2477 730 
Q 2766 1069 2766 1631 
L 2766 1759 
L 2194 1759 
z
M 3341 1997 
L 3341 0 
L 2766 0 
L 2766 531 
Q 2569 213 2275 61 
Q 1981 -91 1556 -91 
Q 1019 -91 701 211 
Q 384 513 384 1019 
Q 384 1609 779 1909 
Q 1175 2209 1959 2209 
L 2766 2209 
L 2766 2266 
Q 2766 2663 2505 2880 
Q 2244 3097 1772 3097 
Q 1472 3097 1187 3025 
Q 903 2953 641 2809 
L 641 3341 
Q 956 3463 1253 3523 
Q 1550 3584 1831 3584 
Q 2591 3584 2966 3190 
Q 3341 2797 3341 1997 
z
" transform="scale(0.015625)"/>
       <path id="DejaVuSans-78" d="M 3513 3500 
L 2247 1797 
L 3578 0 
L 2900 0 
L 1881 1375 
L 863 0 
L 184 0 
L 1544 1831 
L 300 3500 
L 978 3500 
L 1906 2253 
L 2834 3500 
L 3513 3500 
z
" transform="scale(0.015625)"/>
      </defs>
      <use xlink:href="#DejaVuSans-6d"/>
      <use xlink:href="#DejaVuSans-6f" transform="translate(97.412109 0)"/>
      <use xlink:href="#DejaVuSans-6c" transform="translate(158.59375 0)"/>
      <use xlink:href="#DejaVuSans-65" transform="translate(186.376953 0)"/>
      <use xlink:href="#DejaVuSans-63" transform="translate(247.900391 0)"/>
      <use xlink:href="#DejaVuSans-75" transform="translate(302.880859 0)"/>
      <use xlink:href="#DejaVuSans-6c" transform="translate(366.259766 0)"/>
      <use xlink:href="#DejaVuSans-61" transform="translate(394.042969 0)"/>
      <use xlink:href="#DejaVuSans-72" transform="translate(455.322266 0)"/>
      <use xlink:href="#DejaVuSans-20" transform="translate(496.435547 0)"/>
      <use xlink:href="#DejaVuSans-73" transform="translate(528.222656 0)"/>
      <use xlink:href="#DejaVuSans-74" transform="translate(580.322266 0)"/>
      <use xlink:href="#DejaVuSans-61" transform="translate(619.53125 0)"/>
      <use xlink:href="#DejaVuSans-74" transform="translate(680.810547 0)"/>
      <use xlink:href="#DejaVuSans-65" transform="translate(720.019531 0)"/>
      <use xlink:href="#DejaVuSans-20" transform="translate(781.542969 0)"/>
      <use xlink:href="#DejaVuSans-69" transform="translate(813.330078 0)"/>
      <use xlink:href="#DejaVuSans-6e" transform="translate(841.113281 0)"/>
      <use xlink:href="#DejaVuSans-64" transform="translate(904.492188 0)"/>
      <use xlink:href="#DejaVuSans-65" transform="translate(967.96875 0)"/>
      <use xlink:href="#DejaVuSans-78" transform="translate(1027.742188 0)"/>
     </g>
    </g>
    <g id="line2d_23">
     <path d="M 394.485937 66.082031 
L 405.485937 66.082031 
L 416.485937 66.082031 
" style="fill: none; stroke: #4c72b0; stroke-width: 1.5; stroke-linecap: round"/>
    </g>
    <g id="text_19">
     <!-- 0 -->
     <g style="fill: #262626" transform="translate(425.285937 69.932031) scale(0.11 -0.11)">
      <use xlink:href="#DejaVuSans-30"/>
     </g>
    </g>
    <g id="line2d_24">
     <path d="M 394.485937 82.227969 
L 405.485937 82.227969 
L 416.485937 82.227969 
" style="fill: none; stroke: #dd8452; stroke-width: 1.5; stroke-linecap: round"/>
    </g>
    <g id="text_20">
     <!-- 1 -->
     <g style="fill: #262626" transform="translate(425.285937 86.077969) scale(0.11 -0.11)">
      <use xlink:href="#DejaVuSans-31"/>
     </g>
    </g>
    <g id="line2d_25">
     <path d="M 454.284687 66.082031 
L 465.284687 66.082031 
L 476.284687 66.082031 
" style="fill: none; stroke: #55a868; stroke-width: 1.5; stroke-linecap: round"/>
    </g>
    <g id="text_21">
     <!-- 2 -->
     <g style="fill: #262626" transform="translate(485.084687 69.932031) scale(0.11 -0.11)">
      <use xlink:href="#DejaVuSans-32"/>
     </g>
    </g>
    <g id="line2d_26">
     <path d="M 454.284687 82.227969 
L 465.284687 82.227969 
L 476.284687 82.227969 
" style="fill: none; stroke: #c44e52; stroke-width: 1.5; stroke-linecap: round"/>
    </g>
    <g id="text_22">
     <!-- 3 -->
     <g style="fill: #262626" transform="translate(485.084687 86.077969) scale(0.11 -0.11)">
      <use xlink:href="#DejaVuSans-33"/>
     </g>
    </g>
   </g>
  </g>
 </g>
 <defs>
  <clipPath id="pc653380cb9">
   <rect x="72" y="34.56" width="446.4" height="221.76"/>
  </clipPath>
 </defs>
</svg>
